<mxfile host="app.diagrams.net" agent="Mozilla/5.0 (Windows NT 10.0; Win64; x64) AppleWebKit/537.36 (KHTML, like Gecko) Chrome/131.0.0.0 Safari/537.36" version="25.0.3">
  <diagram name="페이지-1" id="DVD8JGtOEOmbd4k7VxYV">
    <mxGraphModel dx="2941" dy="936" grid="0" gridSize="10" guides="1" tooltips="1" connect="1" arrows="1" fold="1" page="0" pageScale="1" pageWidth="827" pageHeight="1169" math="0" shadow="0">
      <root>
        <mxCell id="0" />
        <mxCell id="1" parent="0" />
        <mxCell id="CSt-U8afeh_4yDy_RmMx-1" value="VPC" style="sketch=0;outlineConnect=0;gradientColor=none;html=1;whiteSpace=wrap;fontSize=12;fontStyle=0;shape=mxgraph.aws4.group;grIcon=mxgraph.aws4.group_vpc;strokeColor=#999999;fillColor=none;verticalAlign=top;align=left;spacingLeft=30;fontColor=#879196;dashed=0;" parent="1" vertex="1">
          <mxGeometry x="-10" y="170" width="660" height="450" as="geometry" />
        </mxCell>
        <mxCell id="CSt-U8afeh_4yDy_RmMx-79" value="Availability Zone A" style="fillColor=none;strokeColor=#147EBA;dashed=1;verticalAlign=top;fontStyle=0;fontColor=#147EBA;whiteSpace=wrap;html=1;" parent="1" vertex="1">
          <mxGeometry x="170" y="200" width="190" height="400" as="geometry" />
        </mxCell>
        <mxCell id="CSt-U8afeh_4yDy_RmMx-2" value="&lt;font color=&quot;#ff3333&quot;&gt;Security&lt;/font&gt;" style="fillColor=none;strokeColor=#FF3333;dashed=1;verticalAlign=top;fontStyle=0;fontColor=#147EBA;whiteSpace=wrap;html=1;" parent="1" vertex="1">
          <mxGeometry x="670" y="183" width="70" height="314" as="geometry" />
        </mxCell>
        <mxCell id="CSt-U8afeh_4yDy_RmMx-4" value="Availability Zone C" style="fillColor=none;strokeColor=#147EBA;dashed=1;verticalAlign=top;fontStyle=0;fontColor=#147EBA;whiteSpace=wrap;html=1;" parent="1" vertex="1">
          <mxGeometry x="440" y="200" width="190" height="400" as="geometry" />
        </mxCell>
        <mxCell id="CSt-U8afeh_4yDy_RmMx-5" value="Public subnet 1&lt;div&gt;172.31.0.0/20&lt;/div&gt;" style="points=[[0,0],[0.25,0],[0.5,0],[0.75,0],[1,0],[1,0.25],[1,0.5],[1,0.75],[1,1],[0.75,1],[0.5,1],[0.25,1],[0,1],[0,0.75],[0,0.5],[0,0.25]];outlineConnect=0;gradientColor=none;html=1;whiteSpace=wrap;fontSize=12;fontStyle=0;container=1;pointerEvents=0;collapsible=0;recursiveResize=0;shape=mxgraph.aws4.group;grIcon=mxgraph.aws4.group_security_group;grStroke=0;strokeColor=#7AA116;fillColor=#F2F6E8;verticalAlign=top;align=left;spacingLeft=30;fontColor=#248814;dashed=0;" parent="1" vertex="1">
          <mxGeometry x="180" y="227" width="170" height="103" as="geometry" />
        </mxCell>
        <mxCell id="CSt-U8afeh_4yDy_RmMx-68" value="bastion" style="sketch=0;points=[[0,0,0],[0.25,0,0],[0.5,0,0],[0.75,0,0],[1,0,0],[0,1,0],[0.25,1,0],[0.5,1,0],[0.75,1,0],[1,1,0],[0,0.25,0],[0,0.5,0],[0,0.75,0],[1,0.25,0],[1,0.5,0],[1,0.75,0]];outlineConnect=0;fontColor=#232F3E;fillColor=#ED7100;strokeColor=#ffffff;dashed=0;verticalLabelPosition=bottom;verticalAlign=top;align=center;html=1;fontSize=12;fontStyle=0;shape=mxgraph.aws4.resourceIcon;resIcon=mxgraph.aws4.ec2;" parent="CSt-U8afeh_4yDy_RmMx-5" vertex="1">
          <mxGeometry x="110" y="43" width="30" height="30" as="geometry" />
        </mxCell>
        <mxCell id="CSt-U8afeh_4yDy_RmMx-69" value="NAT" style="sketch=0;outlineConnect=0;fontColor=#232F3E;gradientColor=none;fillColor=#8C4FFF;strokeColor=none;dashed=0;verticalLabelPosition=bottom;verticalAlign=top;align=center;html=1;fontSize=12;fontStyle=0;pointerEvents=1;shape=mxgraph.aws4.nat_gateway;" parent="CSt-U8afeh_4yDy_RmMx-5" vertex="1">
          <mxGeometry x="30.5" y="43" width="30" height="30" as="geometry" />
        </mxCell>
        <mxCell id="CSt-U8afeh_4yDy_RmMx-6" value="Private subnet 1&lt;div&gt;172.31.32.0/20&lt;/div&gt;" style="points=[[0,0],[0.25,0],[0.5,0],[0.75,0],[1,0],[1,0.25],[1,0.5],[1,0.75],[1,1],[0.75,1],[0.5,1],[0.25,1],[0,1],[0,0.75],[0,0.5],[0,0.25]];outlineConnect=0;gradientColor=none;html=1;whiteSpace=wrap;fontSize=12;fontStyle=0;container=1;pointerEvents=0;collapsible=0;recursiveResize=0;shape=mxgraph.aws4.group;grIcon=mxgraph.aws4.group_security_group;grStroke=0;strokeColor=#00A4A6;fillColor=#E6F6F7;verticalAlign=top;align=left;spacingLeft=30;fontColor=#147EBA;dashed=0;" parent="1" vertex="1">
          <mxGeometry x="180" y="340" width="170" height="140" as="geometry" />
        </mxCell>
        <mxCell id="CSt-U8afeh_4yDy_RmMx-36" value="ECS" style="sketch=0;points=[[0,0,0],[0.25,0,0],[0.5,0,0],[0.75,0,0],[1,0,0],[0,1,0],[0.25,1,0],[0.5,1,0],[0.75,1,0],[1,1,0],[0,0.25,0],[0,0.5,0],[0,0.75,0],[1,0.25,0],[1,0.5,0],[1,0.75,0]];outlineConnect=0;fontColor=#232F3E;fillColor=#ED7100;strokeColor=#ffffff;dashed=0;verticalLabelPosition=bottom;verticalAlign=top;align=center;html=1;fontSize=12;fontStyle=0;shape=mxgraph.aws4.resourceIcon;resIcon=mxgraph.aws4.ecs;" parent="CSt-U8afeh_4yDy_RmMx-6" vertex="1">
          <mxGeometry x="95" y="35" width="30" height="30" as="geometry" />
        </mxCell>
        <mxCell id="CSt-U8afeh_4yDy_RmMx-37" value="" style="rounded=1;arcSize=10;dashed=1;strokeColor=#F59D56;fillColor=none;gradientColor=none;dashPattern=8 4;strokeWidth=2;verticalAlign=top;" parent="CSt-U8afeh_4yDy_RmMx-6" vertex="1">
          <mxGeometry x="70" y="60" width="80" height="70" as="geometry" />
        </mxCell>
        <mxCell id="CSt-U8afeh_4yDy_RmMx-38" value="" style="sketch=0;outlineConnect=0;fontColor=#232F3E;gradientColor=none;fillColor=#ED7100;strokeColor=none;dashed=0;verticalLabelPosition=bottom;verticalAlign=top;align=center;html=1;fontSize=12;fontStyle=0;pointerEvents=1;shape=mxgraph.aws4.ecs_service;" parent="CSt-U8afeh_4yDy_RmMx-6" vertex="1">
          <mxGeometry x="76" y="90" width="30" height="30" as="geometry" />
        </mxCell>
        <mxCell id="CSt-U8afeh_4yDy_RmMx-39" value="" style="sketch=0;outlineConnect=0;fontColor=#232F3E;gradientColor=none;fillColor=#ED7100;strokeColor=none;dashed=0;verticalLabelPosition=bottom;verticalAlign=top;align=center;html=1;fontSize=12;fontStyle=0;pointerEvents=1;shape=mxgraph.aws4.ecs_service;" parent="CSt-U8afeh_4yDy_RmMx-6" vertex="1">
          <mxGeometry x="111" y="90" width="30" height="30" as="geometry" />
        </mxCell>
        <mxCell id="CSt-U8afeh_4yDy_RmMx-7" value="Private subnet 3&lt;div&gt;172.31.64.0/20&lt;/div&gt;" style="points=[[0,0],[0.25,0],[0.5,0],[0.75,0],[1,0],[1,0.25],[1,0.5],[1,0.75],[1,1],[0.75,1],[0.5,1],[0.25,1],[0,1],[0,0.75],[0,0.5],[0,0.25]];outlineConnect=0;gradientColor=none;html=1;whiteSpace=wrap;fontSize=12;fontStyle=0;container=1;pointerEvents=0;collapsible=0;recursiveResize=0;shape=mxgraph.aws4.group;grIcon=mxgraph.aws4.group_security_group;grStroke=0;strokeColor=#00A4A6;fillColor=#E6F6F7;verticalAlign=top;align=left;spacingLeft=30;fontColor=#147EBA;dashed=0;" parent="1" vertex="1">
          <mxGeometry x="180" y="490" width="170" height="100" as="geometry" />
        </mxCell>
        <mxCell id="CSt-U8afeh_4yDy_RmMx-66" value="Elasticache&amp;nbsp;&lt;span style=&quot;background-color: initial;&quot;&gt;Redis&lt;/span&gt;" style="sketch=0;outlineConnect=0;fontColor=#232F3E;gradientColor=none;fillColor=#C925D1;strokeColor=none;dashed=0;verticalLabelPosition=bottom;verticalAlign=top;align=center;html=1;fontSize=12;fontStyle=0;pointerEvents=1;shape=mxgraph.aws4.elasticache_for_redis;" parent="CSt-U8afeh_4yDy_RmMx-7" vertex="1">
          <mxGeometry x="70" y="37" width="40" height="40" as="geometry" />
        </mxCell>
        <mxCell id="CSt-U8afeh_4yDy_RmMx-8" value="Public subnet 2&lt;div&gt;172.31.16.0/20&lt;/div&gt;" style="points=[[0,0],[0.25,0],[0.5,0],[0.75,0],[1,0],[1,0.25],[1,0.5],[1,0.75],[1,1],[0.75,1],[0.5,1],[0.25,1],[0,1],[0,0.75],[0,0.5],[0,0.25]];outlineConnect=0;gradientColor=none;html=1;whiteSpace=wrap;fontSize=12;fontStyle=0;container=1;pointerEvents=0;collapsible=0;recursiveResize=0;shape=mxgraph.aws4.group;grIcon=mxgraph.aws4.group_security_group;grStroke=0;strokeColor=#7AA116;fillColor=#F2F6E8;verticalAlign=top;align=left;spacingLeft=30;fontColor=#248814;dashed=0;" parent="1" vertex="1">
          <mxGeometry x="450" y="230" width="170" height="100" as="geometry" />
        </mxCell>
        <mxCell id="CSt-U8afeh_4yDy_RmMx-15" value="NAT" style="sketch=0;outlineConnect=0;fontColor=#232F3E;gradientColor=none;fillColor=#8C4FFF;strokeColor=none;dashed=0;verticalLabelPosition=bottom;verticalAlign=top;align=center;html=1;fontSize=12;fontStyle=0;pointerEvents=1;shape=mxgraph.aws4.nat_gateway;" parent="CSt-U8afeh_4yDy_RmMx-8" vertex="1">
          <mxGeometry x="70" y="43" width="30" height="30" as="geometry" />
        </mxCell>
        <mxCell id="CSt-U8afeh_4yDy_RmMx-9" value="Private subnet 2&lt;br&gt;172.31.48.0/20" style="points=[[0,0],[0.25,0],[0.5,0],[0.75,0],[1,0],[1,0.25],[1,0.5],[1,0.75],[1,1],[0.75,1],[0.5,1],[0.25,1],[0,1],[0,0.75],[0,0.5],[0,0.25]];outlineConnect=0;gradientColor=none;html=1;whiteSpace=wrap;fontSize=12;fontStyle=0;container=1;pointerEvents=0;collapsible=0;recursiveResize=0;shape=mxgraph.aws4.group;grIcon=mxgraph.aws4.group_security_group;grStroke=0;strokeColor=#00A4A6;fillColor=#E6F6F7;verticalAlign=top;align=left;spacingLeft=30;fontColor=#147EBA;dashed=0;" parent="1" vertex="1">
          <mxGeometry x="450" y="340" width="170" height="140" as="geometry" />
        </mxCell>
        <mxCell id="CSt-U8afeh_4yDy_RmMx-50" value="ECS" style="sketch=0;points=[[0,0,0],[0.25,0,0],[0.5,0,0],[0.75,0,0],[1,0,0],[0,1,0],[0.25,1,0],[0.5,1,0],[0.75,1,0],[1,1,0],[0,0.25,0],[0,0.5,0],[0,0.75,0],[1,0.25,0],[1,0.5,0],[1,0.75,0]];outlineConnect=0;fontColor=#232F3E;fillColor=#ED7100;strokeColor=#ffffff;dashed=0;verticalLabelPosition=bottom;verticalAlign=top;align=center;html=1;fontSize=12;fontStyle=0;shape=mxgraph.aws4.resourceIcon;resIcon=mxgraph.aws4.ecs;" parent="CSt-U8afeh_4yDy_RmMx-9" vertex="1">
          <mxGeometry x="70" y="35" width="30" height="30" as="geometry" />
        </mxCell>
        <mxCell id="CSt-U8afeh_4yDy_RmMx-51" value="" style="rounded=1;arcSize=10;dashed=1;strokeColor=#F59D56;fillColor=none;gradientColor=none;dashPattern=8 4;strokeWidth=2;verticalAlign=top;" parent="CSt-U8afeh_4yDy_RmMx-9" vertex="1">
          <mxGeometry x="45" y="60" width="80" height="70" as="geometry" />
        </mxCell>
        <mxCell id="CSt-U8afeh_4yDy_RmMx-52" value="" style="sketch=0;outlineConnect=0;fontColor=#232F3E;gradientColor=none;fillColor=#ED7100;strokeColor=none;dashed=0;verticalLabelPosition=bottom;verticalAlign=top;align=center;html=1;fontSize=12;fontStyle=0;pointerEvents=1;shape=mxgraph.aws4.ecs_service;" parent="CSt-U8afeh_4yDy_RmMx-9" vertex="1">
          <mxGeometry x="51" y="90" width="30" height="30" as="geometry" />
        </mxCell>
        <mxCell id="CSt-U8afeh_4yDy_RmMx-53" value="" style="sketch=0;outlineConnect=0;fontColor=#232F3E;gradientColor=none;fillColor=#ED7100;strokeColor=none;dashed=0;verticalLabelPosition=bottom;verticalAlign=top;align=center;html=1;fontSize=12;fontStyle=0;pointerEvents=1;shape=mxgraph.aws4.ecs_service;" parent="CSt-U8afeh_4yDy_RmMx-9" vertex="1">
          <mxGeometry x="86" y="90" width="30" height="30" as="geometry" />
        </mxCell>
        <mxCell id="CSt-U8afeh_4yDy_RmMx-10" value="Private subnet 4&lt;div&gt;172.31.80.0/20&lt;/div&gt;" style="points=[[0,0],[0.25,0],[0.5,0],[0.75,0],[1,0],[1,0.25],[1,0.5],[1,0.75],[1,1],[0.75,1],[0.5,1],[0.25,1],[0,1],[0,0.75],[0,0.5],[0,0.25]];outlineConnect=0;gradientColor=none;html=1;whiteSpace=wrap;fontSize=12;fontStyle=0;container=1;pointerEvents=0;collapsible=0;recursiveResize=0;shape=mxgraph.aws4.group;grIcon=mxgraph.aws4.group_security_group;grStroke=0;strokeColor=#00A4A6;fillColor=#E6F6F7;verticalAlign=top;align=left;spacingLeft=30;fontColor=#147EBA;dashed=0;" parent="1" vertex="1">
          <mxGeometry x="450" y="490" width="170" height="100" as="geometry" />
        </mxCell>
        <mxCell id="CSt-U8afeh_4yDy_RmMx-67" value="Elasticache&amp;nbsp;&lt;span style=&quot;background-color: initial;&quot;&gt;Redis&lt;/span&gt;" style="sketch=0;outlineConnect=0;fontColor=#232F3E;gradientColor=none;fillColor=#C925D1;strokeColor=none;dashed=0;verticalLabelPosition=bottom;verticalAlign=top;align=center;html=1;fontSize=12;fontStyle=0;pointerEvents=1;shape=mxgraph.aws4.elasticache_for_redis;" parent="CSt-U8afeh_4yDy_RmMx-10" vertex="1">
          <mxGeometry x="70" y="37" width="40" height="40" as="geometry" />
        </mxCell>
        <mxCell id="CSt-U8afeh_4yDy_RmMx-16" value="" style="rounded=1;arcSize=10;dashed=1;strokeColor=#F59D56;fillColor=none;gradientColor=none;dashPattern=8 4;strokeWidth=2;verticalAlign=top;" parent="1" vertex="1">
          <mxGeometry x="10" y="230" width="122" height="310" as="geometry" />
        </mxCell>
        <mxCell id="CSt-U8afeh_4yDy_RmMx-24" style="edgeStyle=orthogonalEdgeStyle;rounded=0;orthogonalLoop=1;jettySize=auto;html=1;exitX=0.5;exitY=1;exitDx=0;exitDy=0;exitPerimeter=0;" parent="1" source="CSt-U8afeh_4yDy_RmMx-18" target="CSt-U8afeh_4yDy_RmMx-20" edge="1">
          <mxGeometry relative="1" as="geometry" />
        </mxCell>
        <mxCell id="CSt-U8afeh_4yDy_RmMx-18" value="CodeBuild" style="sketch=0;points=[[0,0,0],[0.25,0,0],[0.5,0,0],[0.75,0,0],[1,0,0],[0,1,0],[0.25,1,0],[0.5,1,0],[0.75,1,0],[1,1,0],[0,0.25,0],[0,0.5,0],[0,0.75,0],[1,0.25,0],[1,0.5,0],[1,0.75,0]];outlineConnect=0;fontColor=#232F3E;fillColor=#C925D1;strokeColor=#ffffff;dashed=0;verticalLabelPosition=bottom;verticalAlign=top;align=center;html=1;fontSize=12;fontStyle=0;shape=mxgraph.aws4.resourceIcon;resIcon=mxgraph.aws4.codebuild;" parent="1" vertex="1">
          <mxGeometry x="51" y="290" width="40" height="40" as="geometry" />
        </mxCell>
        <mxCell id="CSt-U8afeh_4yDy_RmMx-85" style="edgeStyle=orthogonalEdgeStyle;rounded=0;orthogonalLoop=1;jettySize=auto;html=1;exitX=1;exitY=0.5;exitDx=0;exitDy=0;exitPerimeter=0;" parent="1" source="CSt-U8afeh_4yDy_RmMx-19" edge="1">
          <mxGeometry relative="1" as="geometry">
            <mxPoint x="400" y="440" as="targetPoint" />
          </mxGeometry>
        </mxCell>
        <mxCell id="CSt-U8afeh_4yDy_RmMx-19" value="CodeDeploy" style="sketch=0;points=[[0,0,0],[0.25,0,0],[0.5,0,0],[0.75,0,0],[1,0,0],[0,1,0],[0.25,1,0],[0.5,1,0],[0.75,1,0],[1,1,0],[0,0.25,0],[0,0.5,0],[0,0.75,0],[1,0.25,0],[1,0.5,0],[1,0.75,0]];outlineConnect=0;fontColor=#232F3E;fillColor=#C925D1;strokeColor=#ffffff;dashed=0;verticalLabelPosition=bottom;verticalAlign=top;align=center;html=1;fontSize=12;fontStyle=0;shape=mxgraph.aws4.resourceIcon;resIcon=mxgraph.aws4.codedeploy;" parent="1" vertex="1">
          <mxGeometry x="52" y="470" width="40" height="40" as="geometry" />
        </mxCell>
        <mxCell id="CSt-U8afeh_4yDy_RmMx-20" value="ECR" style="sketch=0;points=[[0,0,0],[0.25,0,0],[0.5,0,0],[0.75,0,0],[1,0,0],[0,1,0],[0.25,1,0],[0.5,1,0],[0.75,1,0],[1,1,0],[0,0.25,0],[0,0.5,0],[0,0.75,0],[1,0.25,0],[1,0.5,0],[1,0.75,0]];outlineConnect=0;fontColor=#232F3E;fillColor=#ED7100;strokeColor=#ffffff;dashed=0;verticalLabelPosition=bottom;verticalAlign=top;align=center;html=1;fontSize=12;fontStyle=0;shape=mxgraph.aws4.resourceIcon;resIcon=mxgraph.aws4.ecr;" parent="1" vertex="1">
          <mxGeometry x="51" y="380" width="40" height="40" as="geometry" />
        </mxCell>
        <mxCell id="CSt-U8afeh_4yDy_RmMx-21" value="CodePipeline" style="sketch=0;points=[[0,0,0],[0.25,0,0],[0.5,0,0],[0.75,0,0],[1,0,0],[0,1,0],[0.25,1,0],[0.5,1,0],[0.75,1,0],[1,1,0],[0,0.25,0],[0,0.5,0],[0,0.75,0],[1,0.25,0],[1,0.5,0],[1,0.75,0]];outlineConnect=0;fontColor=#232F3E;fillColor=#C925D1;strokeColor=#ffffff;dashed=0;verticalLabelPosition=bottom;verticalAlign=top;align=center;html=1;fontSize=12;fontStyle=0;shape=mxgraph.aws4.resourceIcon;resIcon=mxgraph.aws4.codepipeline;" parent="1" vertex="1">
          <mxGeometry x="51" y="200" width="40" height="40" as="geometry" />
        </mxCell>
        <mxCell id="CSt-U8afeh_4yDy_RmMx-35" value="" style="endArrow=classic;html=1;rounded=0;entryX=0.5;entryY=0;entryDx=0;entryDy=0;entryPerimeter=0;" parent="1" target="CSt-U8afeh_4yDy_RmMx-19" edge="1">
          <mxGeometry width="50" height="50" relative="1" as="geometry">
            <mxPoint x="72" y="420" as="sourcePoint" />
            <mxPoint x="122" y="370" as="targetPoint" />
          </mxGeometry>
        </mxCell>
        <mxCell id="CSt-U8afeh_4yDy_RmMx-54" value="user" style="sketch=0;outlineConnect=0;fontColor=#232F3E;gradientColor=none;fillColor=#232F3D;strokeColor=none;dashed=0;verticalLabelPosition=bottom;verticalAlign=top;align=center;html=1;fontSize=12;fontStyle=0;pointerEvents=1;shape=mxgraph.aws4.user;" parent="1" vertex="1">
          <mxGeometry x="-10" y="100" width="40" height="40" as="geometry" />
        </mxCell>
        <mxCell id="CSt-U8afeh_4yDy_RmMx-55" value="Cloudfront" style="sketch=0;points=[[0,0,0],[0.25,0,0],[0.5,0,0],[0.75,0,0],[1,0,0],[0,1,0],[0.25,1,0],[0.5,1,0],[0.75,1,0],[1,1,0],[0,0.25,0],[0,0.5,0],[0,0.75,0],[1,0.25,0],[1,0.5,0],[1,0.75,0]];outlineConnect=0;fontColor=#232F3E;fillColor=#8C4FFF;strokeColor=#ffffff;dashed=0;verticalLabelPosition=bottom;verticalAlign=top;align=center;html=1;fontSize=12;fontStyle=0;aspect=fixed;shape=mxgraph.aws4.resourceIcon;resIcon=mxgraph.aws4.cloudfront;" parent="1" vertex="1">
          <mxGeometry x="150" y="100" width="40" height="40" as="geometry" />
        </mxCell>
        <mxCell id="CSt-U8afeh_4yDy_RmMx-56" value="S3" style="sketch=0;points=[[0,0,0],[0.25,0,0],[0.5,0,0],[0.75,0,0],[1,0,0],[0,1,0],[0.25,1,0],[0.5,1,0],[0.75,1,0],[1,1,0],[0,0.25,0],[0,0.5,0],[0,0.75,0],[1,0.25,0],[1,0.5,0],[1,0.75,0]];outlineConnect=0;fontColor=#232F3E;fillColor=#7AA116;strokeColor=#ffffff;dashed=0;verticalLabelPosition=bottom;verticalAlign=top;align=center;html=1;fontSize=12;fontStyle=0;aspect=fixed;shape=mxgraph.aws4.resourceIcon;resIcon=mxgraph.aws4.s3;" parent="1" vertex="1">
          <mxGeometry x="150" y="30" width="39" height="39" as="geometry" />
        </mxCell>
        <mxCell id="CSt-U8afeh_4yDy_RmMx-57" value="API gateway" style="sketch=0;points=[[0,0,0],[0.25,0,0],[0.5,0,0],[0.75,0,0],[1,0,0],[0,1,0],[0.25,1,0],[0.5,1,0],[0.75,1,0],[1,1,0],[0,0.25,0],[0,0.5,0],[0,0.75,0],[1,0.25,0],[1,0.5,0],[1,0.75,0]];outlineConnect=0;fontColor=#232F3E;fillColor=#8C4FFF;strokeColor=#ffffff;dashed=0;verticalLabelPosition=bottom;verticalAlign=top;align=center;html=1;fontSize=12;fontStyle=0;shape=mxgraph.aws4.resourceIcon;resIcon=mxgraph.aws4.api_gateway;" parent="1" vertex="1">
          <mxGeometry x="310" y="100" width="40" height="40" as="geometry" />
        </mxCell>
        <mxCell id="CSt-U8afeh_4yDy_RmMx-58" value="ALB" style="outlineConnect=0;dashed=0;verticalLabelPosition=bottom;verticalAlign=top;align=center;html=1;shape=mxgraph.aws3.application_load_balancer;fillColor=#F58534;gradientColor=none;" parent="1" vertex="1">
          <mxGeometry x="379" y="310" width="40" height="40" as="geometry" />
        </mxCell>
        <mxCell id="CSt-U8afeh_4yDy_RmMx-59" value="" style="outlineConnect=0;dashed=0;verticalLabelPosition=bottom;verticalAlign=top;align=center;html=1;shape=mxgraph.aws3.internet_gateway;fillColor=#F58534;gradientColor=none;" parent="1" vertex="1">
          <mxGeometry x="379" y="147" width="40" height="40" as="geometry" />
        </mxCell>
        <mxCell id="CSt-U8afeh_4yDy_RmMx-62" value="KMS" style="sketch=0;points=[[0,0,0],[0.25,0,0],[0.5,0,0],[0.75,0,0],[1,0,0],[0,1,0],[0.25,1,0],[0.5,1,0],[0.75,1,0],[1,1,0],[0,0.25,0],[0,0.5,0],[0,0.75,0],[1,0.25,0],[1,0.5,0],[1,0.75,0]];outlineConnect=0;fontColor=#232F3E;fillColor=#DD344C;strokeColor=#ffffff;dashed=0;verticalLabelPosition=bottom;verticalAlign=top;align=center;html=1;fontSize=12;fontStyle=0;shape=mxgraph.aws4.resourceIcon;resIcon=mxgraph.aws4.key_management_service;aspect=fixed;" parent="1" vertex="1">
          <mxGeometry x="690" y="287" width="30" height="30" as="geometry" />
        </mxCell>
        <mxCell id="CSt-U8afeh_4yDy_RmMx-64" value="" style="endArrow=none;dashed=1;html=1;rounded=0;entryX=0;entryY=0.5;entryDx=0;entryDy=0;fillColor=#ffe6cc;strokeColor=#f59d56;strokeWidth=2;dashPattern=8 8;exitX=1;exitY=0.5;exitDx=0;exitDy=0;" parent="1" source="CSt-U8afeh_4yDy_RmMx-37" target="CSt-U8afeh_4yDy_RmMx-51" edge="1">
          <mxGeometry width="50" height="50" relative="1" as="geometry">
            <mxPoint x="340" y="435" as="sourcePoint" />
            <mxPoint x="390" y="385" as="targetPoint" />
          </mxGeometry>
        </mxCell>
        <mxCell id="CSt-U8afeh_4yDy_RmMx-14" value="gitlab" style="shape=image;verticalLabelPosition=bottom;verticalAlign=top;imageAspect=0;image=data:image/png,iVBORw0KGgoAAAANSUhEUgAAAOEAAADgCAMAAADCMfHtAAABHVBMVEX////gQyn6bSb6oSbgPyTjXUv6bibhRCn6bCP6oyb6aybfPSD//PvfPiLfOx3jRyn6aBjfNxb99/bxXif98O3oUCj6YgD86eX0ZCfsVijzYif6nCbeMg3iSi/eLgDlSyj5ZRD4WgD6dyb5iSj6ngnwraH2yL/739f64+D2z8nqfmjsmI3pg3XiUDj5by36pIf2cTX5ekT808f5fSb5l3X5kyf5gib5kCj86N3uk3/qdFzlXEPzu7LwpZrrkYTxs6rmdGXnbFXtn5byfVfsTQ/2jmj6tqHzf1r2po33fkz6xrT82c74uqn4tZP0qZf5mnr5p4T7uHr5yKX5oT35qWH4kgX70rX83sn3n1n5ojb5vIv5yqv6sGP5p072oWETXsd6AAALK0lEQVR4nO2dfVvbOBbFayd1jOMkJi9NAqGkEAjQlpYWWgptaWe2UKBDpy8MO+x2v//HWMtOiO1I9pV0ZSfz+Pc/z82xju6RZIXcu5eTk5OTk5OTk5OTk5OTk5OTk8OFnVqh4cbOzpuTYVr1fOrbj4/e7GxspVCq+fi4Vy5Xe083UnumLu33xcVKtdw7fqu8VH2nWtQIxepj5cUm3K+W/KqlE9Wl3vX8Ui4PN1UXu+PN4rhoSXVVe6U4rqVVjtLyafv+pGr5o9pam5NSWvE4rW5zUp1ULa20VZaqPylPamll5XPCx34fUKhVNlTWGj4NjKFWfVJXWeyOrVDV8oemwloni1qQcjo23ewFi5ZWttWVqh8XQwoX1acTYaccqlp9r67DDUMPk/QaZaUC2GHjaKWausnxIfww3UhUOSXGbEaeq7aorNc0V4qp1QrwoRKpWrmvqtRJtJTb11TVmhCM+5FNtUs1pcJhOJqI6rvp21K0qqZqSXy5QqmlPPTDcT+y6ZGadc27xalSKYR++zhqUuIdJcvv+lSfIVNiRfWedDvaSf0HqyISp5q2R0/1FmpnavKTB1tRYdMjWimtongzE437ESpiqk0zqaY89C+oztGKCiJxYyoM1T3NANMJNfIp+uxoTq3YRqgN/eZU3I/Aj8RN+nxQHfpvGQLd+Y/ca2i5O/aLwi2U/ZhZFnvnZjP6DCn1WN12rXnEmP3u7NjBLbvBMimxqbqjoe2HzLLaIu7s+Mh8lm5eqDtVYJsUu9fQFt2TUm8wS4Uox5TFjcS4Z+kOImapIJcxJnUlIvaaNnvCE5StTdkNnFBGXH5vMtJ+RPUJWqUQ9bjZ747hU7ReY+/EPkt3Rqjppptxs9+lh7b9blfiK2k1NTb9jR1R/pP9iGXTq4RKWvUdUqUQMXE/4iGWTVmr38nDVBL60fNnypNFyqnthOng0lMR+onWcXsNzpOND0PUhxmilmQdrFX/VqJJNSWhP4yN+9GTRTnqe5toFpfeC4RKYQDW0UorGL2Getg19TDfI1QKYU+9rqCxiBCJELOQ0Mc+kEqK+1HdorxNIWYhdsEO/ZgdaRCELg7pMy5V5CO35Lj3kT8IYx4FRah8xLXpVgliUhKJh5KV4jcwAXq4hwonMJO6EiXNE75eEsfiFY60EeyTrwjlHTnznCSuDe9ADf0mqIN7VKR6jQ3sM55CTJsCOylB7kTqEP4otepvWPLuUW59sClVZHaJb6B9RiPdFO918CV4+mtyx0TUN8zMZ4kY+hwmJb1GvBA0DH0W0Xb6lFsfMUicSNWfcJiU3JDACv2tIizufUpl4Uc7BC1+J1Sxuik47sePVnSrzzUbNMTQ55n+XmHBSIzetUykWMMRWOfIKA/RXvOCt5D2EOdgiNc77iCKBRVfnyEUn97HgHP6a6LzA77oDkhEgVug4H3ME55MypjiU4H7mMzrJTOJyPJ7G3aKMCOIXD4Bb+5ngyr3otiu8s/3LCkf8Sqk37WcYXq8Np2rPkPg7TUiYZgtxft865p3cTdZZhO+N21N+oXgmYbv61Db8xUVHsVjnkv1v3dbtaw/MR+l1e6/OJbf7UeG3ul0W1l/bCilVqNj6aYFV/jV0XXD0HW90arNescp1VqN0ad9AH8R/bup+xiG1Zhpv652G746gvMJKvDF7lghEal3GrOqsbXU0Y3JRzXPoQpPHT2IYRidGRzIWteaDJ+vcBe4/LafhRX6bu3OlsbVhmVEP6XunMIUbu2ZU39LzNrNWtWEGk2fq/AZLPSHfcofz9I41hoGTZ9r0z1Y6A8fUP+ciLS62YeHO//o+lyFJuzU/ZQ+hv44dlYzFtjtsPS59GEHUmeUaRjQmGl2rHYYBvUBZv7zOIWZWrXUjdVHWg1IIdukYzrZCFztJH0wZx9JoaFnsCgvdfX4AXQxn4MUPkpU6JZqpO3U2lLyx4IqZIZFSGMn3YazGtdClSgkDSc9fRCHevSxXOqTmlPdRQzsE5m7uAqNpXScCnOopxDTpZ7ENHpqYgjyK5zaO8WhPP1BPZRTIdilHh21EleZy2yqwjOQwoRVWwTDUuhUcA8d4XwGKTznUuhKbKgSWEtcpkXow44xvnJNRF1dT22Be+iYB7DdE3sHzJSowqkl1k4+Bge2A2acYsSD3lPBKR/APIe9Jh3qfBPRA9up8JQP4HyFvUOknCZCJBqI5xs8KR+gDzxNjDuoiQWtp3KlfAAL+pJ0c1fApgSkvT9fyk8wz6Evum3ORLwDp6dypnxAIWxFQ/gkMhF9ifKbRkGHuvQvwAovuRNxwpJcbPCnfEAhx4v8jqBNdVmnivVQH+BRos8XwW7qSdSFnSqS8gGFPDcwh6Ld1EfweGN1SUrgPteVoc+ivcZD7O1GS8KhLia8zxC2+DaJUxL5e2qpYclU1M09ztvs+1KDqHM7lXsrGIXjIoZP3ZIaRF6ntgSXMXfAbync8UUiE32JHE5tiC5j7gQ6/P/UoXkm61Pwy42aRMqPAB7QhLmUSwxPI8ip7LfWYMw9oa/NfZaI/bHEZKeWpB3q8kjsH4/U92R9SjQmOFVoLx+Fa70WpE27WMMtMdapLYQB1J1Pwt9AvnAwJLKdKpvyPuauxFfmLvoYEg3G8QZCD9VJUEh9J/BKNvg96E6VTnkP8HU9BvYfGEalOhWjh5IR/CIlkIwiisSpdSpKDyUC+XYUdIkoRtWNpeDeH8ehurOHIPCe/QWj3RCn3k1GlJR3cXaRvh/ffo4Q/fok/XF6qOtQ8PloIs1P8gs4gt9TkRxqOp8R/3FT/fQRklNbGv16LzeOwH4plkuMRaqL8dJAWcf0z9B/WGNrX3ZL7GIZrxcO1uQlms6Vgt9GqZ9K91RrbblQWFiWluhY0jFPZ3NPquFY1nrBZ13KqaZzpuw3Ndr7Egsc16EjgYWFAwmJ5q7IiQUU+/MDUYnWy4OFwkTiS1GJDvC2ujCCPdXSXy0Xgiy81kU0muaZ8t9cbO4LTEZLX18oFCISBRqO2T9N4Ucl61fc6W+tHRSmEHAqesqzGPI51bLWogM40viKq+GY/f00fozQgyv9rbV1qj5ep7opn+KvSHOkv2Ut00fQA57+zvP0fmDZYxua/i/Z8jxg6W/CvwGLRhtyhdGyXicILBQg6a825VnYV4npbxkHMQ4dT8blxJ7q9FP+rfoxSelvvSokC/ScGpv+pil+pi1LbPq7yxiYvoSeavYvMhMYm/6uQ4H6COz0d/oppTyL4TnVqcyUZw4jPf3N/rPUUp4FNf0tY51LH5H4miLRhH7/XCmU9HdTnldggZb+zvOMHTpmKv2TUp41jOtWUGMWKc8ilP6QlGcRdKqpn6a4Dk0ikP6glGeO4iT9nb7q3+Hl5HLUU8Epz+KVl/5ZpjyLJumpHCnPHEaywDEfZJnyLOquU2l7eW4O1hx9RnpolOH5QHYECQuDPzNPeRaH364RFC5/z1pHDPZ3kagPMfih+DxUlptfAzmBP2ewxYRpf5ORuPzHDKU8C/tWXOK17M/ipMTFL0GBs+/QMYc/RYbx+q+5Eeg69U/unjpYvsn6U/PB21MH3+ZkCk44/DePxOvvc9BDo9RvwU4d/P1X1p9WjJsfsGEc/FT36+yKGYJ66uB2Dh16ByD9lzGuF2bIRZJTf85dD40Sn/7XtzO7FYRj37IFzmsPjXLzN30YB/Pv0DH09P9HOHRM/XbqBGduU57FfyI9dfDfjF7rqmMYWooPbudopwRmcrwxmPeUZ/H91zWZjYPrf04PjXJ487+Dgx+3N/+gHjqNbc/zMjsnJycnJycnJycnJycnJycnR5z/A/FnP6YLWK6yAAAAAElFTkSuQmCC;" parent="1" vertex="1">
          <mxGeometry x="190" y="390" width="40" height="40" as="geometry" />
        </mxCell>
        <mxCell id="CSt-U8afeh_4yDy_RmMx-72" style="edgeStyle=orthogonalEdgeStyle;rounded=0;orthogonalLoop=1;jettySize=auto;html=1;exitX=0;exitY=0.5;exitDx=0;exitDy=0;entryX=1;entryY=0.5;entryDx=0;entryDy=0;entryPerimeter=0;" parent="1" source="CSt-U8afeh_4yDy_RmMx-14" target="CSt-U8afeh_4yDy_RmMx-18" edge="1">
          <mxGeometry relative="1" as="geometry">
            <Array as="points">
              <mxPoint x="150" y="410" />
              <mxPoint x="150" y="310" />
            </Array>
          </mxGeometry>
        </mxCell>
        <mxCell id="CSt-U8afeh_4yDy_RmMx-74" value="Secrets&lt;div&gt;M&lt;span style=&quot;background-color: initial;&quot;&gt;anager&lt;/span&gt;&lt;/div&gt;" style="sketch=0;points=[[0,0,0],[0.25,0,0],[0.5,0,0],[0.75,0,0],[1,0,0],[0,1,0],[0.25,1,0],[0.5,1,0],[0.75,1,0],[1,1,0],[0,0.25,0],[0,0.5,0],[0,0.75,0],[1,0.25,0],[1,0.5,0],[1,0.75,0]];outlineConnect=0;fontColor=#232F3E;fillColor=#DD344C;strokeColor=#ffffff;dashed=0;verticalLabelPosition=bottom;verticalAlign=top;align=center;html=1;fontSize=12;fontStyle=0;shape=mxgraph.aws4.resourceIcon;resIcon=mxgraph.aws4.certificate_manager_3;" parent="1" vertex="1">
          <mxGeometry x="690" y="427" width="30" height="30" as="geometry" />
        </mxCell>
        <mxCell id="CSt-U8afeh_4yDy_RmMx-75" value="Certificate&lt;div&gt;Manager&lt;/div&gt;" style="sketch=0;points=[[0,0,0],[0.25,0,0],[0.5,0,0],[0.75,0,0],[1,0,0],[0,1,0],[0.25,1,0],[0.5,1,0],[0.75,1,0],[1,1,0],[0,0.25,0],[0,0.5,0],[0,0.75,0],[1,0.25,0],[1,0.5,0],[1,0.75,0]];outlineConnect=0;fontColor=#232F3E;fillColor=#DD344C;strokeColor=#ffffff;dashed=0;verticalLabelPosition=bottom;verticalAlign=top;align=center;html=1;fontSize=12;fontStyle=0;aspect=fixed;shape=mxgraph.aws4.resourceIcon;resIcon=mxgraph.aws4.secrets_manager;" parent="1" vertex="1">
          <mxGeometry x="690" y="357" width="30" height="30" as="geometry" />
        </mxCell>
        <mxCell id="CSt-U8afeh_4yDy_RmMx-77" value="WAF" style="sketch=0;points=[[0,0,0],[0.25,0,0],[0.5,0,0],[0.75,0,0],[1,0,0],[0,1,0],[0.25,1,0],[0.5,1,0],[0.75,1,0],[1,1,0],[0,0.25,0],[0,0.5,0],[0,0.75,0],[1,0.25,0],[1,0.5,0],[1,0.75,0]];outlineConnect=0;fontColor=#232F3E;fillColor=#DD344C;strokeColor=#ffffff;dashed=0;verticalLabelPosition=bottom;verticalAlign=top;align=center;html=1;fontSize=12;fontStyle=0;shape=mxgraph.aws4.resourceIcon;resIcon=mxgraph.aws4.waf;aspect=fixed;" parent="1" vertex="1">
          <mxGeometry x="230" y="100" width="40" height="40" as="geometry" />
        </mxCell>
        <mxCell id="CSt-U8afeh_4yDy_RmMx-78" value="IAM" style="sketch=0;points=[[0,0,0],[0.25,0,0],[0.5,0,0],[0.75,0,0],[1,0,0],[0,1,0],[0.25,1,0],[0.5,1,0],[0.75,1,0],[1,1,0],[0,0.25,0],[0,0.5,0],[0,0.75,0],[1,0.25,0],[1,0.5,0],[1,0.75,0]];outlineConnect=0;fontColor=#232F3E;fillColor=#DD344C;strokeColor=#ffffff;dashed=0;verticalLabelPosition=bottom;verticalAlign=top;align=center;html=1;fontSize=12;fontStyle=0;shape=mxgraph.aws4.resourceIcon;resIcon=mxgraph.aws4.identity_and_access_management;" parent="1" vertex="1">
          <mxGeometry x="690" y="217" width="30" height="30" as="geometry" />
        </mxCell>
        <mxCell id="CSt-U8afeh_4yDy_RmMx-81" value="Route53" style="sketch=0;points=[[0,0,0],[0.25,0,0],[0.5,0,0],[0.75,0,0],[1,0,0],[0,1,0],[0.25,1,0],[0.5,1,0],[0.75,1,0],[1,1,0],[0,0.25,0],[0,0.5,0],[0,0.75,0],[1,0.25,0],[1,0.5,0],[1,0.75,0]];outlineConnect=0;fontColor=#232F3E;fillColor=#8C4FFF;strokeColor=#ffffff;dashed=0;verticalLabelPosition=bottom;verticalAlign=top;align=center;html=1;fontSize=12;fontStyle=0;shape=mxgraph.aws4.resourceIcon;resIcon=mxgraph.aws4.route_53;" parent="1" vertex="1">
          <mxGeometry x="70" y="100" width="40" height="40" as="geometry" />
        </mxCell>
        <mxCell id="CSt-U8afeh_4yDy_RmMx-84" value="SQS" style="sketch=0;points=[[0,0,0],[0.25,0,0],[0.5,0,0],[0.75,0,0],[1,0,0],[0,1,0],[0.25,1,0],[0.5,1,0],[0.75,1,0],[1,1,0],[0,0.25,0],[0,0.5,0],[0,0.75,0],[1,0.25,0],[1,0.5,0],[1,0.75,0]];outlineConnect=0;fontColor=#232F3E;fillColor=#E7157B;strokeColor=#ffffff;dashed=0;verticalLabelPosition=bottom;verticalAlign=top;align=center;html=1;fontSize=12;fontStyle=0;shape=mxgraph.aws4.resourceIcon;resIcon=mxgraph.aws4.sqs;" parent="1" vertex="1">
          <mxGeometry x="379" y="527" width="40" height="40" as="geometry" />
        </mxCell>
        <mxCell id="CSt-U8afeh_4yDy_RmMx-86" style="edgeStyle=orthogonalEdgeStyle;rounded=0;orthogonalLoop=1;jettySize=auto;html=1;exitX=0.5;exitY=1;exitDx=0;exitDy=0;exitPerimeter=0;entryX=1;entryY=0.5;entryDx=0;entryDy=0;entryPerimeter=0;" parent="1" source="CSt-U8afeh_4yDy_RmMx-58" target="CSt-U8afeh_4yDy_RmMx-36" edge="1">
          <mxGeometry relative="1" as="geometry" />
        </mxCell>
        <mxCell id="CSt-U8afeh_4yDy_RmMx-87" style="edgeStyle=orthogonalEdgeStyle;rounded=0;orthogonalLoop=1;jettySize=auto;html=1;exitX=0.5;exitY=1;exitDx=0;exitDy=0;exitPerimeter=0;entryX=0;entryY=0.5;entryDx=0;entryDy=0;entryPerimeter=0;" parent="1" source="CSt-U8afeh_4yDy_RmMx-58" target="CSt-U8afeh_4yDy_RmMx-50" edge="1">
          <mxGeometry relative="1" as="geometry" />
        </mxCell>
        <mxCell id="CSt-U8afeh_4yDy_RmMx-89" value="" style="endArrow=classic;html=1;rounded=0;entryX=0;entryY=0.5;entryDx=0;entryDy=0;entryPerimeter=0;" parent="1" target="CSt-U8afeh_4yDy_RmMx-81" edge="1">
          <mxGeometry width="50" height="50" relative="1" as="geometry">
            <mxPoint x="30" y="120" as="sourcePoint" />
            <mxPoint x="80" y="70" as="targetPoint" />
          </mxGeometry>
        </mxCell>
        <mxCell id="CSt-U8afeh_4yDy_RmMx-94" value="&lt;font color=&quot;#b266ff&quot;&gt;Monitoring&lt;/font&gt;" style="fillColor=none;strokeColor=#B266FF;dashed=1;verticalAlign=top;fontStyle=0;fontColor=#147EBA;whiteSpace=wrap;html=1;" parent="1" vertex="1">
          <mxGeometry x="490" y="50" width="250" height="103" as="geometry" />
        </mxCell>
        <mxCell id="CSt-U8afeh_4yDy_RmMx-95" value="datadog" style="shape=image;verticalLabelPosition=bottom;verticalAlign=top;imageAspect=0;image=data:image/png,iVBORw0KGgoAAAANSUhEUgAAAOEAAADhCAMAAAAJbSJIAAAAnFBMVEX///9jLKZhKKVfJKRgJqRbG6JeIaNdH6NbGqL+/f9ZFqH8+v1gJ6ReIaRYE6H6+Pz18vnx7Pfi2e7g1u3n4PGvl9BWC6Dr5vPArdq3otS7p9faz+lTAJ9qNars5fSnjMt2SbCEXLjSxeSYecN8UrOfg8aOar1tO6uRcL/FtdzRw+R9ULSUdb/EstydgMVyRa6tlM+Na72CWregiMbEnTlNAAATgUlEQVR4nO1daZuiPLOWBAhis8kmIoobuLRL2///vx0CqCAJ4JKnz7wX94e5pmdsoEiq6q4lZa/XoUOHDh06dOjQoUOHDh06dOjQoUOHDh06dOjQ4VkM/voB2KCv6Ybrj2fH72j218/yYfQ1Y7j1fr/nISergiJCIer/9TN9Bv2pv9uO1nvkOI6EFMgDLgO//8e3qWEuDt5xHnO8gpAg8lwFgfbXz/gCBomSWQvvGM0vJ06WkHhbMQIk/a8f9wlommH5B/sYrWJOUpEI+TrRcjjTv37sVpgutiNvvYKOo0qK2EawG1T/rx++BlpiPsazzZ5LBJMFopY1Qz78tRgVDAxrOFzYm1V4CoAgIPjEghEgeH8t0A26MTWTJUtcWSKYjBKD/55oOdD5rwVLFs3aefb5eAGOqgoifEbJWkD8M1LT1y1/662jkFMdWUCK+PXko0Mh+UWxWcLjfy2YO/T9nR3FHIAKwkv22tII3MazjN2Ra5IRRv+Ny+/r7nAxspfR6hTARMveVTJkGxnfnG6k+k+C0GAqmKZpw8N5fdysAlmVUCsf3QJwhK+ePfq46ZKMXL5uJUt2nJ8S8pHQKvjqZiRDzqzHIXPmC1B7cXnIRsLzJDEftYTxdcB5Hi9MslV0Y1gnISNSs5VZyJZLaOU3iZaZMrqnGhFZ0TZTbXxQXkBAFJ5fZXV8vclYzmU1TvSNKm/ZSDh1Gp4TwZXnm/54L9S8A+Ivbm43WTh2/rdhTBWRFW3Ta9cQSNLsutXGtP385WxCCIMHQaX5PWi3QHT9q099UZCRy9dO9O3Hq6tRIS4dK8RPSSvfd1ZnKHDL4P5q1O+CA7e48PbTgbZpYNRjgw1N+RUu8ss04xsRPoZsrRfMppfgbByFhCAkLwzwUjwupl3cQLibkSWF3fArRrkom/TYiVYER7P4MT3ZrPqq+nBSYk6sUW+3NHr+frXah3EcnOZ2mZ9osXRXMj0g7xoQMspjeEQJ4+3D7XQc3LhxWUSArvby/voHxrSaNTvB0/2HA1kVQcyI1IyIfDGAsVeW0XOTP7S5fFsAIKp72yRf9BEhjwreLiIrRmDRL/AOdiQTKc63j0zfzBjY+CSn4ROQTmvCYlEQQfh9/8kiayJo+bqehUWwbcHZrBD9AcjW1PAuUIJy6D0TCowEzims0JEoosIqF0Wy3mpc3TG/o/wvfXMbPaopEf3bSxhCDt4JAPGtJqRm96YkNBC2i2QTDPf29LStM7w8XtD3gFMLrOybpInMclH7R+MtxsTtor1AjbXZMltHW0ps5X1f7EhMilke49HlozllrVavkA6P87DNcpMLw8vdepFcIpy/9PzNOJcdorikWUhPecWcj9QVtpHY7Yp3VSQRGxC+cPlWj1BywPx6t6GsoSm9lPDbSZOEFiywU1Lt2z8SeAaIXxOgEYvS6wyCiU35oBbGL6XDhtxk0/PS9+h4t38j7NPgNQEaYZZvw4dUMebqa/Z8yMnH30zbUf76pkFVQAAYUW8jLr1OkS7FyHkxwDHjW+ClHFM1t0hryDOibYNShMjXCGFJkxdzmv5dIOGCDc+ZxGrQ4rWrNyIsSijVZEvcQB7R/7cWizuL4Z357IeYWRBYFdjmxewDqlml/gbNX1WVoo/nETm4QKxIzbmYnYB1+9BG6OUo1a7JZF0lZFVgK8VPcl0YupXfqNTO69LBKcT1yxevx7AYAws0b5h+0oHLl2/jUrIXhf3DKhc1LL7cr3lNWKtL/Or1ZMq2KfnMjLZZJe8r1Hh17QTQ6z6rT8leFPDytethlNxFXVJvMOdfyL1P19/fa+wEzaYaicOoSNovuQtOoMvQj3jlefbtByJUpKX2eCOChKy6hpbl3TOhqtrg8sX/PH15PXtxe723bagDM+sampUpFKQKoeFN/HQPYe4JhWVPn9RLyCxTM354tRKNW0wdWt5Wdy1zOCUv/jWrzps9QkRRuvGrpLAJlZQpoFDgtJxaLUb3zeOKk1QZkvPyQ+f2/JQSwhXMclHmY3IPALJPwArLV/K2ZjTJWtkUCuvKDQzcJPF+rYSojm68A6NyXyCR2gYsrFDw0Rp46tVQIQqlMzP14y/E5EUBzLJterWGCCqCYG+IRXnMvR8KD01Z+t4y/Qy/f8iYVMCsa2jwUyUbgK8syDp9vIf6iVZcf5oV1i8oCYH5sGfWU1NmBbb82R/wkFnrL1NZwIO3KJeuFMoNjDkMAhiTE1BFsOqLmhHr18KpoIxmmHk19KAqZbagUm+RvBfdf6DAVSCXkYQUI/4lLXMZp2spJ1ygbIIe2DRdwgx6XL+GEqNcFJ1NiVw09v3dLLgu8mOipl+uCYCmO63qmanKqIR488kE8IKqylf5voTx46+WagLFChoZ23p3wYy29ekSKui2r0Q1rL7i4Y1q8iKaNDffebVhMLNcFLEUhAH20/MJtwYLkhMciVwuSu0wFJz92m6T71zWrSK7RmGaAeBXWm8w3HqetzUpztg9ibwEvsdWy5hDP9W0UTdv81dBy4O16eIZrk6jZyJXs4bX8MxOsBFdfiphi1/WnyQiNQEGf2HV7D2mpGsfGcxH0L9QM1Lsmr135KY8RkRxSl1DjlVfFFU3AKHr5AOgNnKS4uvPwKXuGyYkQ9vTqA1iRWp0mkOU2ZT0iN0m6f1YkRpC21CGunLiO6D17bI7wVZpG7rumk8VvKbmwttcwlOYpWJo/JRZ+YnqEMH+AxfXfPsnFmQBH+Tjs6wvqVMBg56rfRfU+Il/211o9spB9yMrWXjSp/BEnlVfVG9Bq9Cid1XfjaVyD3+m2RHZmrYiUS/Bp7j899m+9+D7+Iy1kJuv2ZUQe0OKgMk7f5O3eeX9f63zUk4jgZhVts2gHrt497COXz4BzecOdkGRkBmp6VMTKMK71ZKRWrj0rcOSIiEnsuoa6v1QJXzbBw8vd2luRXLambma+uybIDeX45f6+/a1BzbIDZl6e120IJFZXxQ9LIWb/vvKbx1jWYTQ+b2F8LQ9gyrZvE/hQHP5iXX7BHNzD8fop/D0NMuG7J7uMymU+tQsn7Tdf96C01gbB06h46gschkWzeUn1BSaW2rY9qLwtKQCvl9Dc92rMGoqCmj8HdJKJmOvNSMoptFoR/QyQBZOUb/QKwpgv5IiiiDuZNOyXqTNCutNX0IMJk6xTz1p2fBaTYdrZ+CPl/si0rwhgApeXMTEKdbvG05c9ii6OOQm8xb5Kntyt6Sk5iioIFmNf844Uq0WgD4BcpX0Dl4/UTqWhicJeE0Wx1MLx6bKaRrAi7LK/fzaO33Q7w2T/3uhtawFRg09vOLvnpY8dUNFWu3q8vF9W8qfuq/p7m6VW7Uk5BcU7jSfbf3p9dcNh1Wj6bCp+5MPJJrr1y4Cr0b0RGB/iV/fZjQ8nL8vgZyeQ4WKIHJxNPKHD67BwWc+PiZW8SmbhytwAdVP/aocdCLKNnbDlBJCQRXwlD0eCbITRLORSbTPqbZ8RqYytBZTTWoiqYP0lYgw31Ufuj9C10unGifMz962xqVjx0zr6XgLWkMTQfqEJ/rvm/icN49WtltWSH+etQtBQQrCaLYbGg2UDOfDHRZFtkFTeytG3ZkZ4weLwgvcZuvmK9nXFxuI/SwfryLPt1qRMdzdwaaVlhohFlCfdN+mdBpASQ3P49Fo7EWCnPIIsWXRTLs+B5vkPiX7VQK1ebBvmLuR93MtYANFwMhpktI2ODnjtcfdHWyS+5RRByUk4XDl99wzHrsXc0hA5H2O9i2DIWOC/8TVWjanZxYt3AVpjupQhdnAD15EkhDEUtli8WjZNtqz0w7zrfCR1AkB5EPyZQDCHFUXh+uiwnPh0tsuLGt0EtFNpRUhbM2i9TidSoA7NNl0nTS1maeAVQn7Ec/xB7Ng/aa7WaA6quw43O8T3fe2oOKoCZ9phT9MZu62WENOIuy4JO6SKjHiwPUXlvaMW9NDkGafcf8iYJA46dGTQw1riOMu9QPlfk/IoiY9xjdi0pOxbDyWxAHSae4Z+kQxHLdip21tKblSmTSatnCI8Juw7w7SJ/zXTsib/ft4L7E5PdPCIRKPq1sqzgC8C/x6MxOKJWQzvG3XKCHgSKbDgB8IWdPMDT/HSoCLRGzyGH6jHpKLCnoMskd7A/001QfSTAfOidEOp7wHah76poUXovXXLl9PWvdq5HAlVNiE4pPXjBpNG9wFrXqJE5FP9aNZk/XDq7rmMtNefbxhi2OlPoiapDCGStP+X/GpLHV/DoWHvN21apL26vsy1kgmpIZwdKYoINUjeM85RNwt9AXXxX19vbOKXxQ+W86oDbM2ZSrQNWMnP2P78nQJCu8vxbxunjTyHWLezmZ4G62PNr13TQd2EpU8YRmu5xfAZHY1wNE1FklJzRDLy6Q4Q+0ewNunrt/McJ5wiNY9hBGCjEBYNzKVtrWlNh0xkXBI1UOVNN7shoGDzxa2Q7+o7EA5Ym28l0zSXv2080Vm0mg6jWlbtIF2xqB1L9PDKVIU7nru/Z/S6Tg6JjVsaJtO7sEEYpMZWUIQt7N9evhwCyDNCn2RKTfCITUjUkNOmUKukecnJgq0CwZm1YYIsZDFzMZu4Il8jKaAkBwiCpvpylaoHadxx7AhyAYnvBXWkFkLHyEpLESpZ+7r1nCx2y2GLomAJlFJu06fxhk1qRvEQ6RAzOT0TDUGRuuMPbmj7Xh9CeBEWW3GlTjCF9u5/F1jKih1g/gxGDUpVppq1Icct7H7lh1ZPj44K4PnUIuy7aC5+JOOnk+7lwImpQv3weVPCFtPGwNBdNbldQzAVwuHeG4Y/JFAwnfERXDA5qSHUVYTSjChryEQwtIyJm6Gr35ub5vFrUbv0r0jLYykWwkyacMsD6KmN9EtAh4GxSdIjPCkEu4sJQT3m4VxNRmbFsWtNOFjYQnZtGHql8LpxzrNMgH3xRf8wwxVS36pWQFQhptsEm1zGojL3aCBYxxGZ0sKTTVftQfzMH927poylir5v/soCig4p9m23zRsIEV6GiE9087obEmhy7QhY4nDWPkWwy2kyvmh0nlfgFoUJ1MJ8WkEDScbGJGae4SoNL3CI+L4W/7JrHQx7B59e7vvx0g7BdKsDSNSc+83a6xE4BhHmN1/KJeHB/TvsaiXMGXwa6yIbOa13lx+iz2yde7zOPsXvpwdW7fclVVg5f7FEsosBOy51wC8RXcgHonxFeauYM6D4uxav00tkggFv7N0ViV95Ng76F93KWhxeT9ZRCV/E7hF5C6hRjvs14zUDabTwRjNyLgyx1ZKkIST1/nNiUNEdwlb0DMa0nFfqcFj9M06+TCWuuanO/DUJzXTxMREObdlN1+zMokPVoR0WnQ6fIxNceaaMv1qd0guWfF8zoMl3x3oIHxeQiAi2VEu6/EC74S0T5LR4K88Qmy3hr0Ruo7lnYL7XJLzU3YU8FBQ5dPaO9z9k+6wk/DaR9vOGeGmAqw4muEHN47Q2KhaEE6UYXz59vzHzAG+BCPatsgT+y1Tzomt4aPxcY4NVO4Q+w31nRwQSdzpctwN3WrlUTPSrPfLU5lrMc0fr2XZGs+S5/MvpuOzHphxY68xktRJ8O1tiS/R2o5/w/QSxK6ID+D6HE6r7GBxHmGWCTRrck08RLKqzO2DT/K2xmK0XkmOLCi5x1LZHCe9pVKCNg63dPQ0o5REM5NonCAHq815N9UrQVnfGPr2PIyhoJSG8zhsRpvtrzf5ittkQNP8I0iUCtfesTGsnvLjkayE0dIzCYlIzfVH6/kJSAKsfh0oI1JzPzoDxBakIvUMcWRvl3zmEIsz+IAoIJGb21uflPKfHuzflaoK1C8UVtkcmC2uwaSZVSTeJQsMt1KWJ8taDgAUBUcOjqMdKQjTF+PjhXfwl60TRcvx9glkMkq1IXph+/ZxOU+oJDYnbXu1nISdSKef9WhKMPau6dshJjD13yqcsAARSRM2Q+jLTTWo6TWaai7h1Mk8jDtfnndu1Zzo1mK8vMSA1kicSZZYJEmW4Wn+vT6PiHv7fTzMbqTN2y1KmO5lDWVTO/oV2QbadDQ7XpRU46iLhhInEcSn+Xq084ftv+7sBRTsP1SSnTKpT64nuzRVv95g9UWY2mH43nIPHEkka1yirvj8jKME89l2YVImLX8Y2p4HPD4op8bR0T40ZWuSSC5vNJkpWWksh+vvvNNkopK+VD5Rs0Qw1eH3P8fzeMH0u5wJWKHTzy+mHa0afHFvacZ+cFSS8jB9uLM3+wAKla+fxQZEkoVEzY4z7+C7GsvNSIdlGe0Zrxbx15mjY4lTdu5o+bPiEyHAg2SKhLg4XEXrkT+0ms4F/X9CEildu5fSuFyWil/CnnCd9BBGHEazQ2I/dFYjAxki2aTXXqH7FwsnJl/BaqaeNmeP7PP/GbhBIRR3+ETNBFWC8fxoj7e++w+uWAWYd9+S4/vVPGEypmvo/5CaNcBHeFrl7QBvlcj86zBwPVViNovkP4Zedcsm/rZ7wOQ865/gfChrl+5xODxo1yj0T0APV96NEA+mXjaivaat9t+DK6ko+rVHh5H9G+WMTNr875jNHjYsAg4FJOEamsMJs0GVfwT9qIo3vvmF5M0/zVbI8I8noCRBuJQEdGfzf4GzVGEMTT+Baf1vitehQ4cOHTp06NChQ4cOHTp06NChQ4cOHTp06PAy/g/jBkvk53cISwAAAABJRU5ErkJggg==;horizontal=1;" parent="1" vertex="1">
          <mxGeometry x="510" y="75" width="50" height="50" as="geometry" />
        </mxCell>
        <mxCell id="CSt-U8afeh_4yDy_RmMx-97" value="Cloudwatch" style="sketch=0;points=[[0,0,0],[0.25,0,0],[0.5,0,0],[0.75,0,0],[1,0,0],[0,1,0],[0.25,1,0],[0.5,1,0],[0.75,1,0],[1,1,0],[0,0.25,0],[0,0.5,0],[0,0.75,0],[1,0.25,0],[1,0.5,0],[1,0.75,0]];points=[[0,0,0],[0.25,0,0],[0.5,0,0],[0.75,0,0],[1,0,0],[0,1,0],[0.25,1,0],[0.5,1,0],[0.75,1,0],[1,1,0],[0,0.25,0],[0,0.5,0],[0,0.75,0],[1,0.25,0],[1,0.5,0],[1,0.75,0]];outlineConnect=0;fontColor=#232F3E;fillColor=#E7157B;strokeColor=#ffffff;dashed=0;verticalLabelPosition=bottom;verticalAlign=top;align=center;html=1;fontSize=12;fontStyle=0;shape=mxgraph.aws4.resourceIcon;resIcon=mxgraph.aws4.cloudwatch_2;" parent="1" vertex="1">
          <mxGeometry x="595" y="80" width="40" height="40" as="geometry" />
        </mxCell>
        <mxCell id="CSt-U8afeh_4yDy_RmMx-98" value="VPC" style="sketch=0;outlineConnect=0;gradientColor=none;html=1;whiteSpace=wrap;fontSize=12;fontStyle=0;shape=mxgraph.aws4.group;grIcon=mxgraph.aws4.group_vpc;strokeColor=#999999;fillColor=none;verticalAlign=top;align=left;spacingLeft=30;fontColor=#879196;dashed=0;" parent="1" vertex="1">
          <mxGeometry x="-10" y="980" width="660" height="450" as="geometry" />
        </mxCell>
        <mxCell id="CSt-U8afeh_4yDy_RmMx-99" value="Availability Zone A" style="fillColor=none;strokeColor=#147EBA;dashed=1;verticalAlign=top;fontStyle=0;fontColor=#147EBA;whiteSpace=wrap;html=1;" parent="1" vertex="1">
          <mxGeometry x="170" y="1020" width="190" height="390" as="geometry" />
        </mxCell>
        <mxCell id="CSt-U8afeh_4yDy_RmMx-100" value="&lt;font color=&quot;#ff3333&quot;&gt;Security&lt;/font&gt;" style="fillColor=none;strokeColor=#FF3333;dashed=1;verticalAlign=top;fontStyle=0;fontColor=#147EBA;whiteSpace=wrap;html=1;" parent="1" vertex="1">
          <mxGeometry x="670" y="980" width="70" height="314" as="geometry" />
        </mxCell>
        <mxCell id="CSt-U8afeh_4yDy_RmMx-101" value="Availability Zone C" style="fillColor=none;strokeColor=#147EBA;dashed=1;verticalAlign=top;fontStyle=0;fontColor=#147EBA;whiteSpace=wrap;html=1;" parent="1" vertex="1">
          <mxGeometry x="440" y="1020" width="190" height="390" as="geometry" />
        </mxCell>
        <mxCell id="CSt-U8afeh_4yDy_RmMx-102" value="Public subnet" style="points=[[0,0],[0.25,0],[0.5,0],[0.75,0],[1,0],[1,0.25],[1,0.5],[1,0.75],[1,1],[0.75,1],[0.5,1],[0.25,1],[0,1],[0,0.75],[0,0.5],[0,0.25]];outlineConnect=0;gradientColor=none;html=1;whiteSpace=wrap;fontSize=12;fontStyle=0;container=1;pointerEvents=0;collapsible=0;recursiveResize=0;shape=mxgraph.aws4.group;grIcon=mxgraph.aws4.group_security_group;grStroke=0;strokeColor=#7AA116;fillColor=#F2F6E8;verticalAlign=top;align=left;spacingLeft=30;fontColor=#248814;dashed=0;" parent="1" vertex="1">
          <mxGeometry x="180" y="1060" width="170" height="90" as="geometry" />
        </mxCell>
        <mxCell id="CSt-U8afeh_4yDy_RmMx-104" value="NAT" style="sketch=0;outlineConnect=0;fontColor=#232F3E;gradientColor=none;fillColor=#8C4FFF;strokeColor=none;dashed=0;verticalLabelPosition=bottom;verticalAlign=top;align=center;html=1;fontSize=12;fontStyle=0;pointerEvents=1;shape=mxgraph.aws4.nat_gateway;" parent="CSt-U8afeh_4yDy_RmMx-102" vertex="1">
          <mxGeometry x="105" y="39" width="30" height="30" as="geometry" />
        </mxCell>
        <mxCell id="CSt-U8afeh_4yDy_RmMx-105" value="Private subnet" style="points=[[0,0],[0.25,0],[0.5,0],[0.75,0],[1,0],[1,0.25],[1,0.5],[1,0.75],[1,1],[0.75,1],[0.5,1],[0.25,1],[0,1],[0,0.75],[0,0.5],[0,0.25]];outlineConnect=0;gradientColor=none;html=1;whiteSpace=wrap;fontSize=12;fontStyle=0;container=1;pointerEvents=0;collapsible=0;recursiveResize=0;shape=mxgraph.aws4.group;grIcon=mxgraph.aws4.group_security_group;grStroke=0;strokeColor=#00A4A6;fillColor=#E6F6F7;verticalAlign=top;align=left;spacingLeft=30;fontColor=#147EBA;dashed=0;" parent="1" vertex="1">
          <mxGeometry x="180" y="1160" width="170" height="140" as="geometry" />
        </mxCell>
        <mxCell id="CSt-U8afeh_4yDy_RmMx-106" value="ECS" style="sketch=0;points=[[0,0,0],[0.25,0,0],[0.5,0,0],[0.75,0,0],[1,0,0],[0,1,0],[0.25,1,0],[0.5,1,0],[0.75,1,0],[1,1,0],[0,0.25,0],[0,0.5,0],[0,0.75,0],[1,0.25,0],[1,0.5,0],[1,0.75,0]];outlineConnect=0;fontColor=#232F3E;fillColor=#ED7100;strokeColor=#ffffff;dashed=0;verticalLabelPosition=bottom;verticalAlign=top;align=center;html=1;fontSize=12;fontStyle=0;shape=mxgraph.aws4.resourceIcon;resIcon=mxgraph.aws4.ecs;" parent="CSt-U8afeh_4yDy_RmMx-105" vertex="1">
          <mxGeometry x="95" y="35" width="30" height="30" as="geometry" />
        </mxCell>
        <mxCell id="CSt-U8afeh_4yDy_RmMx-107" value="" style="rounded=1;arcSize=10;dashed=1;strokeColor=#F59D56;fillColor=none;gradientColor=none;dashPattern=8 4;strokeWidth=2;verticalAlign=top;" parent="CSt-U8afeh_4yDy_RmMx-105" vertex="1">
          <mxGeometry x="70" y="60" width="80" height="70" as="geometry" />
        </mxCell>
        <mxCell id="CSt-U8afeh_4yDy_RmMx-108" value="" style="sketch=0;outlineConnect=0;fontColor=#232F3E;gradientColor=none;fillColor=#ED7100;strokeColor=none;dashed=0;verticalLabelPosition=bottom;verticalAlign=top;align=center;html=1;fontSize=12;fontStyle=0;pointerEvents=1;shape=mxgraph.aws4.ecs_service;" parent="CSt-U8afeh_4yDy_RmMx-105" vertex="1">
          <mxGeometry x="76" y="90" width="30" height="30" as="geometry" />
        </mxCell>
        <mxCell id="CSt-U8afeh_4yDy_RmMx-109" value="" style="sketch=0;outlineConnect=0;fontColor=#232F3E;gradientColor=none;fillColor=#ED7100;strokeColor=none;dashed=0;verticalLabelPosition=bottom;verticalAlign=top;align=center;html=1;fontSize=12;fontStyle=0;pointerEvents=1;shape=mxgraph.aws4.ecs_service;" parent="CSt-U8afeh_4yDy_RmMx-105" vertex="1">
          <mxGeometry x="111" y="90" width="30" height="30" as="geometry" />
        </mxCell>
        <mxCell id="CSt-U8afeh_4yDy_RmMx-110" value="Private subnet" style="points=[[0,0],[0.25,0],[0.5,0],[0.75,0],[1,0],[1,0.25],[1,0.5],[1,0.75],[1,1],[0.75,1],[0.5,1],[0.25,1],[0,1],[0,0.75],[0,0.5],[0,0.25]];outlineConnect=0;gradientColor=none;html=1;whiteSpace=wrap;fontSize=12;fontStyle=0;container=1;pointerEvents=0;collapsible=0;recursiveResize=0;shape=mxgraph.aws4.group;grIcon=mxgraph.aws4.group_security_group;grStroke=0;strokeColor=#00A4A6;fillColor=#E6F6F7;verticalAlign=top;align=left;spacingLeft=30;fontColor=#147EBA;dashed=0;" parent="1" vertex="1">
          <mxGeometry x="180" y="1310" width="170" height="90" as="geometry" />
        </mxCell>
        <mxCell id="CSt-U8afeh_4yDy_RmMx-111" value="Elasticache&lt;div&gt;Redis&lt;/div&gt;" style="sketch=0;outlineConnect=0;fontColor=#232F3E;gradientColor=none;fillColor=#C925D1;strokeColor=none;dashed=0;verticalLabelPosition=bottom;verticalAlign=top;align=center;html=1;fontSize=12;fontStyle=0;pointerEvents=1;shape=mxgraph.aws4.elasticache_for_redis;" parent="CSt-U8afeh_4yDy_RmMx-110" vertex="1">
          <mxGeometry x="65" y="25" width="40" height="40" as="geometry" />
        </mxCell>
        <mxCell id="CSt-U8afeh_4yDy_RmMx-112" value="Public subnet" style="points=[[0,0],[0.25,0],[0.5,0],[0.75,0],[1,0],[1,0.25],[1,0.5],[1,0.75],[1,1],[0.75,1],[0.5,1],[0.25,1],[0,1],[0,0.75],[0,0.5],[0,0.25]];outlineConnect=0;gradientColor=none;html=1;whiteSpace=wrap;fontSize=12;fontStyle=0;container=1;pointerEvents=0;collapsible=0;recursiveResize=0;shape=mxgraph.aws4.group;grIcon=mxgraph.aws4.group_security_group;grStroke=0;strokeColor=#7AA116;fillColor=#F2F6E8;verticalAlign=top;align=left;spacingLeft=30;fontColor=#248814;dashed=0;" parent="1" vertex="1">
          <mxGeometry x="450" y="1060" width="170" height="90" as="geometry" />
        </mxCell>
        <mxCell id="CSt-U8afeh_4yDy_RmMx-113" value="NAT" style="sketch=0;outlineConnect=0;fontColor=#232F3E;gradientColor=none;fillColor=#8C4FFF;strokeColor=none;dashed=0;verticalLabelPosition=bottom;verticalAlign=top;align=center;html=1;fontSize=12;fontStyle=0;pointerEvents=1;shape=mxgraph.aws4.nat_gateway;" parent="CSt-U8afeh_4yDy_RmMx-112" vertex="1">
          <mxGeometry x="70" y="39" width="30" height="30" as="geometry" />
        </mxCell>
        <mxCell id="CSt-U8afeh_4yDy_RmMx-114" value="Private subnet" style="points=[[0,0],[0.25,0],[0.5,0],[0.75,0],[1,0],[1,0.25],[1,0.5],[1,0.75],[1,1],[0.75,1],[0.5,1],[0.25,1],[0,1],[0,0.75],[0,0.5],[0,0.25]];outlineConnect=0;gradientColor=none;html=1;whiteSpace=wrap;fontSize=12;fontStyle=0;container=1;pointerEvents=0;collapsible=0;recursiveResize=0;shape=mxgraph.aws4.group;grIcon=mxgraph.aws4.group_security_group;grStroke=0;strokeColor=#00A4A6;fillColor=#E6F6F7;verticalAlign=top;align=left;spacingLeft=30;fontColor=#147EBA;dashed=0;" parent="1" vertex="1">
          <mxGeometry x="450" y="1160" width="170" height="140" as="geometry" />
        </mxCell>
        <mxCell id="CSt-U8afeh_4yDy_RmMx-115" value="ECS" style="sketch=0;points=[[0,0,0],[0.25,0,0],[0.5,0,0],[0.75,0,0],[1,0,0],[0,1,0],[0.25,1,0],[0.5,1,0],[0.75,1,0],[1,1,0],[0,0.25,0],[0,0.5,0],[0,0.75,0],[1,0.25,0],[1,0.5,0],[1,0.75,0]];outlineConnect=0;fontColor=#232F3E;fillColor=#ED7100;strokeColor=#ffffff;dashed=0;verticalLabelPosition=bottom;verticalAlign=top;align=center;html=1;fontSize=12;fontStyle=0;shape=mxgraph.aws4.resourceIcon;resIcon=mxgraph.aws4.ecs;" parent="CSt-U8afeh_4yDy_RmMx-114" vertex="1">
          <mxGeometry x="70" y="35" width="30" height="30" as="geometry" />
        </mxCell>
        <mxCell id="CSt-U8afeh_4yDy_RmMx-116" value="" style="rounded=1;arcSize=10;dashed=1;strokeColor=#F59D56;fillColor=none;gradientColor=none;dashPattern=8 4;strokeWidth=2;verticalAlign=top;" parent="CSt-U8afeh_4yDy_RmMx-114" vertex="1">
          <mxGeometry x="45" y="60" width="80" height="70" as="geometry" />
        </mxCell>
        <mxCell id="CSt-U8afeh_4yDy_RmMx-117" value="" style="sketch=0;outlineConnect=0;fontColor=#232F3E;gradientColor=none;fillColor=#ED7100;strokeColor=none;dashed=0;verticalLabelPosition=bottom;verticalAlign=top;align=center;html=1;fontSize=12;fontStyle=0;pointerEvents=1;shape=mxgraph.aws4.ecs_service;" parent="CSt-U8afeh_4yDy_RmMx-114" vertex="1">
          <mxGeometry x="51" y="90" width="30" height="30" as="geometry" />
        </mxCell>
        <mxCell id="CSt-U8afeh_4yDy_RmMx-118" value="" style="sketch=0;outlineConnect=0;fontColor=#232F3E;gradientColor=none;fillColor=#ED7100;strokeColor=none;dashed=0;verticalLabelPosition=bottom;verticalAlign=top;align=center;html=1;fontSize=12;fontStyle=0;pointerEvents=1;shape=mxgraph.aws4.ecs_service;" parent="CSt-U8afeh_4yDy_RmMx-114" vertex="1">
          <mxGeometry x="86" y="90" width="30" height="30" as="geometry" />
        </mxCell>
        <mxCell id="CSt-U8afeh_4yDy_RmMx-119" value="Private subnet" style="points=[[0,0],[0.25,0],[0.5,0],[0.75,0],[1,0],[1,0.25],[1,0.5],[1,0.75],[1,1],[0.75,1],[0.5,1],[0.25,1],[0,1],[0,0.75],[0,0.5],[0,0.25]];outlineConnect=0;gradientColor=none;html=1;whiteSpace=wrap;fontSize=12;fontStyle=0;container=1;pointerEvents=0;collapsible=0;recursiveResize=0;shape=mxgraph.aws4.group;grIcon=mxgraph.aws4.group_security_group;grStroke=0;strokeColor=#00A4A6;fillColor=#E6F6F7;verticalAlign=top;align=left;spacingLeft=30;fontColor=#147EBA;dashed=0;" parent="1" vertex="1">
          <mxGeometry x="450" y="1310" width="170" height="90" as="geometry" />
        </mxCell>
        <mxCell id="CSt-U8afeh_4yDy_RmMx-120" value="Elasticache&lt;div&gt;Redis&lt;/div&gt;" style="sketch=0;outlineConnect=0;fontColor=#232F3E;gradientColor=none;fillColor=#C925D1;strokeColor=none;dashed=0;verticalLabelPosition=bottom;verticalAlign=top;align=center;html=1;fontSize=12;fontStyle=0;pointerEvents=1;shape=mxgraph.aws4.elasticache_for_redis;" parent="CSt-U8afeh_4yDy_RmMx-119" vertex="1">
          <mxGeometry x="65" y="25" width="40" height="40" as="geometry" />
        </mxCell>
        <mxCell id="CSt-U8afeh_4yDy_RmMx-121" value="" style="rounded=1;arcSize=10;dashed=1;strokeColor=#F59D56;fillColor=none;gradientColor=none;dashPattern=8 4;strokeWidth=2;verticalAlign=top;" parent="1" vertex="1">
          <mxGeometry x="10" y="1050" width="122" height="310" as="geometry" />
        </mxCell>
        <mxCell id="CSt-U8afeh_4yDy_RmMx-122" style="edgeStyle=orthogonalEdgeStyle;rounded=0;orthogonalLoop=1;jettySize=auto;html=1;exitX=0.5;exitY=1;exitDx=0;exitDy=0;exitPerimeter=0;" parent="1" source="CSt-U8afeh_4yDy_RmMx-123" target="CSt-U8afeh_4yDy_RmMx-126" edge="1">
          <mxGeometry relative="1" as="geometry" />
        </mxCell>
        <mxCell id="CSt-U8afeh_4yDy_RmMx-123" value="CodeBuild" style="sketch=0;points=[[0,0,0],[0.25,0,0],[0.5,0,0],[0.75,0,0],[1,0,0],[0,1,0],[0.25,1,0],[0.5,1,0],[0.75,1,0],[1,1,0],[0,0.25,0],[0,0.5,0],[0,0.75,0],[1,0.25,0],[1,0.5,0],[1,0.75,0]];outlineConnect=0;fontColor=#232F3E;fillColor=#C925D1;strokeColor=#ffffff;dashed=0;verticalLabelPosition=bottom;verticalAlign=top;align=center;html=1;fontSize=12;fontStyle=0;shape=mxgraph.aws4.resourceIcon;resIcon=mxgraph.aws4.codebuild;" parent="1" vertex="1">
          <mxGeometry x="51" y="1110" width="40" height="40" as="geometry" />
        </mxCell>
        <mxCell id="CSt-U8afeh_4yDy_RmMx-124" style="edgeStyle=orthogonalEdgeStyle;rounded=0;orthogonalLoop=1;jettySize=auto;html=1;exitX=1;exitY=0.5;exitDx=0;exitDy=0;exitPerimeter=0;" parent="1" source="CSt-U8afeh_4yDy_RmMx-125" edge="1">
          <mxGeometry relative="1" as="geometry">
            <mxPoint x="400" y="1260" as="targetPoint" />
          </mxGeometry>
        </mxCell>
        <mxCell id="CSt-U8afeh_4yDy_RmMx-125" value="CodeDeploy" style="sketch=0;points=[[0,0,0],[0.25,0,0],[0.5,0,0],[0.75,0,0],[1,0,0],[0,1,0],[0.25,1,0],[0.5,1,0],[0.75,1,0],[1,1,0],[0,0.25,0],[0,0.5,0],[0,0.75,0],[1,0.25,0],[1,0.5,0],[1,0.75,0]];outlineConnect=0;fontColor=#232F3E;fillColor=#C925D1;strokeColor=#ffffff;dashed=0;verticalLabelPosition=bottom;verticalAlign=top;align=center;html=1;fontSize=12;fontStyle=0;shape=mxgraph.aws4.resourceIcon;resIcon=mxgraph.aws4.codedeploy;" parent="1" vertex="1">
          <mxGeometry x="52" y="1290" width="40" height="40" as="geometry" />
        </mxCell>
        <mxCell id="CSt-U8afeh_4yDy_RmMx-126" value="ECR" style="sketch=0;points=[[0,0,0],[0.25,0,0],[0.5,0,0],[0.75,0,0],[1,0,0],[0,1,0],[0.25,1,0],[0.5,1,0],[0.75,1,0],[1,1,0],[0,0.25,0],[0,0.5,0],[0,0.75,0],[1,0.25,0],[1,0.5,0],[1,0.75,0]];outlineConnect=0;fontColor=#232F3E;fillColor=#ED7100;strokeColor=#ffffff;dashed=0;verticalLabelPosition=bottom;verticalAlign=top;align=center;html=1;fontSize=12;fontStyle=0;shape=mxgraph.aws4.resourceIcon;resIcon=mxgraph.aws4.ecr;" parent="1" vertex="1">
          <mxGeometry x="51" y="1200" width="40" height="40" as="geometry" />
        </mxCell>
        <mxCell id="CSt-U8afeh_4yDy_RmMx-127" value="CodePipeline" style="sketch=0;points=[[0,0,0],[0.25,0,0],[0.5,0,0],[0.75,0,0],[1,0,0],[0,1,0],[0.25,1,0],[0.5,1,0],[0.75,1,0],[1,1,0],[0,0.25,0],[0,0.5,0],[0,0.75,0],[1,0.25,0],[1,0.5,0],[1,0.75,0]];outlineConnect=0;fontColor=#232F3E;fillColor=#C925D1;strokeColor=#ffffff;dashed=0;verticalLabelPosition=bottom;verticalAlign=top;align=center;html=1;fontSize=12;fontStyle=0;shape=mxgraph.aws4.resourceIcon;resIcon=mxgraph.aws4.codepipeline;" parent="1" vertex="1">
          <mxGeometry x="51" y="1020" width="40" height="40" as="geometry" />
        </mxCell>
        <mxCell id="CSt-U8afeh_4yDy_RmMx-128" value="" style="endArrow=classic;html=1;rounded=0;entryX=0.5;entryY=0;entryDx=0;entryDy=0;entryPerimeter=0;" parent="1" target="CSt-U8afeh_4yDy_RmMx-125" edge="1">
          <mxGeometry width="50" height="50" relative="1" as="geometry">
            <mxPoint x="72" y="1240" as="sourcePoint" />
            <mxPoint x="122" y="1190" as="targetPoint" />
          </mxGeometry>
        </mxCell>
        <mxCell id="CSt-U8afeh_4yDy_RmMx-129" value="user" style="sketch=0;outlineConnect=0;fontColor=#232F3E;gradientColor=none;fillColor=#232F3D;strokeColor=none;dashed=0;verticalLabelPosition=bottom;verticalAlign=top;align=center;html=1;fontSize=12;fontStyle=0;pointerEvents=1;shape=mxgraph.aws4.user;" parent="1" vertex="1">
          <mxGeometry x="40" y="850" width="40" height="40" as="geometry" />
        </mxCell>
        <mxCell id="CSt-U8afeh_4yDy_RmMx-130" value="Cloudfront" style="sketch=0;points=[[0,0,0],[0.25,0,0],[0.5,0,0],[0.75,0,0],[1,0,0],[0,1,0],[0.25,1,0],[0.5,1,0],[0.75,1,0],[1,1,0],[0,0.25,0],[0,0.5,0],[0,0.75,0],[1,0.25,0],[1,0.5,0],[1,0.75,0]];outlineConnect=0;fontColor=#232F3E;fillColor=#8C4FFF;strokeColor=#ffffff;dashed=0;verticalLabelPosition=bottom;verticalAlign=top;align=center;html=1;fontSize=12;fontStyle=0;aspect=fixed;shape=mxgraph.aws4.resourceIcon;resIcon=mxgraph.aws4.cloudfront;" parent="1" vertex="1">
          <mxGeometry x="200" y="810" width="40" height="40" as="geometry" />
        </mxCell>
        <mxCell id="CSt-U8afeh_4yDy_RmMx-131" value="S3" style="sketch=0;points=[[0,0,0],[0.25,0,0],[0.5,0,0],[0.75,0,0],[1,0,0],[0,1,0],[0.25,1,0],[0.5,1,0],[0.75,1,0],[1,1,0],[0,0.25,0],[0,0.5,0],[0,0.75,0],[1,0.25,0],[1,0.5,0],[1,0.75,0]];outlineConnect=0;fontColor=#232F3E;fillColor=#7AA116;strokeColor=#ffffff;dashed=0;verticalLabelPosition=bottom;verticalAlign=top;align=center;html=1;fontSize=12;fontStyle=0;aspect=fixed;shape=mxgraph.aws4.resourceIcon;resIcon=mxgraph.aws4.s3;" parent="1" vertex="1">
          <mxGeometry x="281" y="811" width="39" height="39" as="geometry" />
        </mxCell>
        <mxCell id="CSt-U8afeh_4yDy_RmMx-132" value="API gateway" style="sketch=0;points=[[0,0,0],[0.25,0,0],[0.5,0,0],[0.75,0,0],[1,0,0],[0,1,0],[0.25,1,0],[0.5,1,0],[0.75,1,0],[1,1,0],[0,0.25,0],[0,0.5,0],[0,0.75,0],[1,0.25,0],[1,0.5,0],[1,0.75,0]];outlineConnect=0;fontColor=#232F3E;fillColor=#8C4FFF;strokeColor=#ffffff;dashed=0;verticalLabelPosition=bottom;verticalAlign=top;align=center;html=1;fontSize=12;fontStyle=0;shape=mxgraph.aws4.resourceIcon;resIcon=mxgraph.aws4.api_gateway;" parent="1" vertex="1">
          <mxGeometry x="280" y="890" width="40" height="40" as="geometry" />
        </mxCell>
        <mxCell id="CSt-U8afeh_4yDy_RmMx-133" value="ALB" style="outlineConnect=0;dashed=0;verticalLabelPosition=bottom;verticalAlign=top;align=center;html=1;shape=mxgraph.aws3.application_load_balancer;fillColor=#F58534;gradientColor=none;" parent="1" vertex="1">
          <mxGeometry x="379" y="1130" width="40" height="40" as="geometry" />
        </mxCell>
        <mxCell id="CSt-U8afeh_4yDy_RmMx-134" value="" style="outlineConnect=0;dashed=0;verticalLabelPosition=bottom;verticalAlign=top;align=center;html=1;shape=mxgraph.aws3.internet_gateway;fillColor=#F58534;gradientColor=none;" parent="1" vertex="1">
          <mxGeometry x="379" y="960" width="40" height="40" as="geometry" />
        </mxCell>
        <mxCell id="CSt-U8afeh_4yDy_RmMx-135" value="KMS" style="sketch=0;points=[[0,0,0],[0.25,0,0],[0.5,0,0],[0.75,0,0],[1,0,0],[0,1,0],[0.25,1,0],[0.5,1,0],[0.75,1,0],[1,1,0],[0,0.25,0],[0,0.5,0],[0,0.75,0],[1,0.25,0],[1,0.5,0],[1,0.75,0]];outlineConnect=0;fontColor=#232F3E;fillColor=#DD344C;strokeColor=#ffffff;dashed=0;verticalLabelPosition=bottom;verticalAlign=top;align=center;html=1;fontSize=12;fontStyle=0;shape=mxgraph.aws4.resourceIcon;resIcon=mxgraph.aws4.key_management_service;aspect=fixed;" parent="1" vertex="1">
          <mxGeometry x="690" y="1084" width="30" height="30" as="geometry" />
        </mxCell>
        <mxCell id="CSt-U8afeh_4yDy_RmMx-136" value="" style="endArrow=none;dashed=1;html=1;rounded=0;entryX=0;entryY=0.5;entryDx=0;entryDy=0;fillColor=#ffe6cc;strokeColor=#f59d56;strokeWidth=2;dashPattern=8 8;exitX=1;exitY=0.5;exitDx=0;exitDy=0;" parent="1" source="CSt-U8afeh_4yDy_RmMx-107" target="CSt-U8afeh_4yDy_RmMx-116" edge="1">
          <mxGeometry width="50" height="50" relative="1" as="geometry">
            <mxPoint x="340" y="1255" as="sourcePoint" />
            <mxPoint x="390" y="1205" as="targetPoint" />
          </mxGeometry>
        </mxCell>
        <mxCell id="CSt-U8afeh_4yDy_RmMx-137" value="gitlab" style="shape=image;verticalLabelPosition=bottom;verticalAlign=top;imageAspect=0;image=data:image/png,iVBORw0KGgoAAAANSUhEUgAAAOEAAADgCAMAAADCMfHtAAABHVBMVEX////gQyn6bSb6oSbgPyTjXUv6bibhRCn6bCP6oyb6aybfPSD//PvfPiLfOx3jRyn6aBjfNxb99/bxXif98O3oUCj6YgD86eX0ZCfsVijzYif6nCbeMg3iSi/eLgDlSyj5ZRD4WgD6dyb5iSj6ngnwraH2yL/739f64+D2z8nqfmjsmI3pg3XiUDj5by36pIf2cTX5ekT808f5fSb5l3X5kyf5gib5kCj86N3uk3/qdFzlXEPzu7LwpZrrkYTxs6rmdGXnbFXtn5byfVfsTQ/2jmj6tqHzf1r2po33fkz6xrT82c74uqn4tZP0qZf5mnr5p4T7uHr5yKX5oT35qWH4kgX70rX83sn3n1n5ojb5vIv5yqv6sGP5p072oWETXsd6AAALK0lEQVR4nO2dfVvbOBbFayd1jOMkJi9NAqGkEAjQlpYWWgptaWe2UKBDpy8MO+x2v//HWMtOiO1I9pV0ZSfz+Pc/z82xju6RZIXcu5eTk5OTk5OTk5OTk5OTk5OTk8OFnVqh4cbOzpuTYVr1fOrbj4/e7GxspVCq+fi4Vy5Xe083UnumLu33xcVKtdw7fqu8VH2nWtQIxepj5cUm3K+W/KqlE9Wl3vX8Ui4PN1UXu+PN4rhoSXVVe6U4rqVVjtLyafv+pGr5o9pam5NSWvE4rW5zUp1ULa20VZaqPylPamll5XPCx34fUKhVNlTWGj4NjKFWfVJXWeyOrVDV8oemwloni1qQcjo23ewFi5ZWttWVqh8XQwoX1acTYaccqlp9r67DDUMPk/QaZaUC2GHjaKWausnxIfww3UhUOSXGbEaeq7aorNc0V4qp1QrwoRKpWrmvqtRJtJTb11TVmhCM+5FNtUs1pcJhOJqI6rvp21K0qqZqSXy5QqmlPPTDcT+y6ZGadc27xalSKYR++zhqUuIdJcvv+lSfIVNiRfWedDvaSf0HqyISp5q2R0/1FmpnavKTB1tRYdMjWimtongzE437ESpiqk0zqaY89C+oztGKCiJxYyoM1T3NANMJNfIp+uxoTq3YRqgN/eZU3I/Aj8RN+nxQHfpvGQLd+Y/ca2i5O/aLwi2U/ZhZFnvnZjP6DCn1WN12rXnEmP3u7NjBLbvBMimxqbqjoe2HzLLaIu7s+Mh8lm5eqDtVYJsUu9fQFt2TUm8wS4Uox5TFjcS4Z+kOImapIJcxJnUlIvaaNnvCE5StTdkNnFBGXH5vMtJ+RPUJWqUQ9bjZ747hU7ReY+/EPkt3Rqjppptxs9+lh7b9blfiK2k1NTb9jR1R/pP9iGXTq4RKWvUdUqUQMXE/4iGWTVmr38nDVBL60fNnypNFyqnthOng0lMR+onWcXsNzpOND0PUhxmilmQdrFX/VqJJNSWhP4yN+9GTRTnqe5toFpfeC4RKYQDW0UorGL2Getg19TDfI1QKYU+9rqCxiBCJELOQ0Mc+kEqK+1HdorxNIWYhdsEO/ZgdaRCELg7pMy5V5CO35Lj3kT8IYx4FRah8xLXpVgliUhKJh5KV4jcwAXq4hwonMJO6EiXNE75eEsfiFY60EeyTrwjlHTnznCSuDe9ADf0mqIN7VKR6jQ3sM55CTJsCOylB7kTqEP4otepvWPLuUW59sClVZHaJb6B9RiPdFO918CV4+mtyx0TUN8zMZ4kY+hwmJb1GvBA0DH0W0Xb6lFsfMUicSNWfcJiU3JDACv2tIizufUpl4Uc7BC1+J1Sxuik47sePVnSrzzUbNMTQ55n+XmHBSIzetUykWMMRWOfIKA/RXvOCt5D2EOdgiNc77iCKBRVfnyEUn97HgHP6a6LzA77oDkhEgVug4H3ME55MypjiU4H7mMzrJTOJyPJ7G3aKMCOIXD4Bb+5ngyr3otiu8s/3LCkf8Sqk37WcYXq8Np2rPkPg7TUiYZgtxft865p3cTdZZhO+N21N+oXgmYbv61Db8xUVHsVjnkv1v3dbtaw/MR+l1e6/OJbf7UeG3ul0W1l/bCilVqNj6aYFV/jV0XXD0HW90arNescp1VqN0ad9AH8R/bup+xiG1Zhpv652G746gvMJKvDF7lghEal3GrOqsbXU0Y3JRzXPoQpPHT2IYRidGRzIWteaDJ+vcBe4/LafhRX6bu3OlsbVhmVEP6XunMIUbu2ZU39LzNrNWtWEGk2fq/AZLPSHfcofz9I41hoGTZ9r0z1Y6A8fUP+ciLS62YeHO//o+lyFJuzU/ZQ+hv44dlYzFtjtsPS59GEHUmeUaRjQmGl2rHYYBvUBZv7zOIWZWrXUjdVHWg1IIdukYzrZCFztJH0wZx9JoaFnsCgvdfX4AXQxn4MUPkpU6JZqpO3U2lLyx4IqZIZFSGMn3YazGtdClSgkDSc9fRCHevSxXOqTmlPdRQzsE5m7uAqNpXScCnOopxDTpZ7ENHpqYgjyK5zaO8WhPP1BPZRTIdilHh21EleZy2yqwjOQwoRVWwTDUuhUcA8d4XwGKTznUuhKbKgSWEtcpkXow44xvnJNRF1dT22Be+iYB7DdE3sHzJSowqkl1k4+Bge2A2acYsSD3lPBKR/APIe9Jh3qfBPRA9up8JQP4HyFvUOknCZCJBqI5xs8KR+gDzxNjDuoiQWtp3KlfAAL+pJ0c1fApgSkvT9fyk8wz6Evum3ORLwDp6dypnxAIWxFQ/gkMhF9ifKbRkGHuvQvwAovuRNxwpJcbPCnfEAhx4v8jqBNdVmnivVQH+BRos8XwW7qSdSFnSqS8gGFPDcwh6Ld1EfweGN1SUrgPteVoc+ivcZD7O1GS8KhLia8zxC2+DaJUxL5e2qpYclU1M09ztvs+1KDqHM7lXsrGIXjIoZP3ZIaRF6ntgSXMXfAbync8UUiE32JHE5tiC5j7gQ6/P/UoXkm61Pwy42aRMqPAB7QhLmUSwxPI8ip7LfWYMw9oa/NfZaI/bHEZKeWpB3q8kjsH4/U92R9SjQmOFVoLx+Fa70WpE27WMMtMdapLYQB1J1Pwt9AvnAwJLKdKpvyPuauxFfmLvoYEg3G8QZCD9VJUEh9J/BKNvg96E6VTnkP8HU9BvYfGEalOhWjh5IR/CIlkIwiisSpdSpKDyUC+XYUdIkoRtWNpeDeH8ehurOHIPCe/QWj3RCn3k1GlJR3cXaRvh/ffo4Q/fok/XF6qOtQ8PloIs1P8gs4gt9TkRxqOp8R/3FT/fQRklNbGv16LzeOwH4plkuMRaqL8dJAWcf0z9B/WGNrX3ZL7GIZrxcO1uQlms6Vgt9GqZ9K91RrbblQWFiWluhY0jFPZ3NPquFY1nrBZ13KqaZzpuw3Ndr7Egsc16EjgYWFAwmJ5q7IiQUU+/MDUYnWy4OFwkTiS1GJDvC2ujCCPdXSXy0Xgiy81kU0muaZ8t9cbO4LTEZLX18oFCISBRqO2T9N4Ucl61fc6W+tHRSmEHAqesqzGPI51bLWogM40viKq+GY/f00fozQgyv9rbV1qj5ep7opn+KvSHOkv2Ut00fQA57+zvP0fmDZYxua/i/Z8jxg6W/CvwGLRhtyhdGyXicILBQg6a825VnYV4npbxkHMQ4dT8blxJ7q9FP+rfoxSelvvSokC/ScGpv+pil+pi1LbPq7yxiYvoSeavYvMhMYm/6uQ4H6COz0d/oppTyL4TnVqcyUZw4jPf3N/rPUUp4FNf0tY51LH5H4miLRhH7/XCmU9HdTnldggZb+zvOMHTpmKv2TUp41jOtWUGMWKc8ilP6QlGcRdKqpn6a4Dk0ikP6glGeO4iT9nb7q3+Hl5HLUU8Epz+KVl/5ZpjyLJumpHCnPHEaywDEfZJnyLOquU2l7eW4O1hx9RnpolOH5QHYECQuDPzNPeRaH364RFC5/z1pHDPZ3kagPMfih+DxUlptfAzmBP2ewxYRpf5ORuPzHDKU8C/tWXOK17M/ipMTFL0GBs+/QMYc/RYbx+q+5Eeg69U/unjpYvsn6U/PB21MH3+ZkCk44/DePxOvvc9BDo9RvwU4d/P1X1p9WjJsfsGEc/FT36+yKGYJ66uB2Dh16ByD9lzGuF2bIRZJTf85dD40Sn/7XtzO7FYRj37IFzmsPjXLzN30YB/Pv0DH09P9HOHRM/XbqBGduU57FfyI9dfDfjF7rqmMYWooPbudopwRmcrwxmPeUZ/H91zWZjYPrf04PjXJ487+Dgx+3N/+gHjqNbc/zMjsnJycnJycnJycnJycnJycnR5z/A/FnP6YLWK6yAAAAAElFTkSuQmCC;" parent="1" vertex="1">
          <mxGeometry x="190" y="1210" width="40" height="40" as="geometry" />
        </mxCell>
        <mxCell id="CSt-U8afeh_4yDy_RmMx-138" style="edgeStyle=orthogonalEdgeStyle;rounded=0;orthogonalLoop=1;jettySize=auto;html=1;exitX=0;exitY=0.5;exitDx=0;exitDy=0;entryX=1;entryY=0.5;entryDx=0;entryDy=0;entryPerimeter=0;" parent="1" source="CSt-U8afeh_4yDy_RmMx-137" target="CSt-U8afeh_4yDy_RmMx-123" edge="1">
          <mxGeometry relative="1" as="geometry">
            <Array as="points">
              <mxPoint x="150" y="1230" />
              <mxPoint x="150" y="1130" />
            </Array>
          </mxGeometry>
        </mxCell>
        <mxCell id="CSt-U8afeh_4yDy_RmMx-139" value="Secrets&lt;div&gt;M&lt;span style=&quot;background-color: initial;&quot;&gt;anager&lt;/span&gt;&lt;/div&gt;" style="sketch=0;points=[[0,0,0],[0.25,0,0],[0.5,0,0],[0.75,0,0],[1,0,0],[0,1,0],[0.25,1,0],[0.5,1,0],[0.75,1,0],[1,1,0],[0,0.25,0],[0,0.5,0],[0,0.75,0],[1,0.25,0],[1,0.5,0],[1,0.75,0]];outlineConnect=0;fontColor=#232F3E;fillColor=#DD344C;strokeColor=#ffffff;dashed=0;verticalLabelPosition=bottom;verticalAlign=top;align=center;html=1;fontSize=12;fontStyle=0;shape=mxgraph.aws4.resourceIcon;resIcon=mxgraph.aws4.certificate_manager_3;" parent="1" vertex="1">
          <mxGeometry x="690" y="1224" width="30" height="30" as="geometry" />
        </mxCell>
        <mxCell id="CSt-U8afeh_4yDy_RmMx-140" value="Certificate&lt;div&gt;Manager&lt;/div&gt;" style="sketch=0;points=[[0,0,0],[0.25,0,0],[0.5,0,0],[0.75,0,0],[1,0,0],[0,1,0],[0.25,1,0],[0.5,1,0],[0.75,1,0],[1,1,0],[0,0.25,0],[0,0.5,0],[0,0.75,0],[1,0.25,0],[1,0.5,0],[1,0.75,0]];outlineConnect=0;fontColor=#232F3E;fillColor=#DD344C;strokeColor=#ffffff;dashed=0;verticalLabelPosition=bottom;verticalAlign=top;align=center;html=1;fontSize=12;fontStyle=0;aspect=fixed;shape=mxgraph.aws4.resourceIcon;resIcon=mxgraph.aws4.secrets_manager;" parent="1" vertex="1">
          <mxGeometry x="690" y="1154" width="30" height="30" as="geometry" />
        </mxCell>
        <mxCell id="CSt-U8afeh_4yDy_RmMx-141" value="WAF" style="sketch=0;points=[[0,0,0],[0.25,0,0],[0.5,0,0],[0.75,0,0],[1,0,0],[0,1,0],[0.25,1,0],[0.5,1,0],[0.75,1,0],[1,1,0],[0,0.25,0],[0,0.5,0],[0,0.75,0],[1,0.25,0],[1,0.5,0],[1,0.75,0]];outlineConnect=0;fontColor=#232F3E;fillColor=#DD344C;strokeColor=#ffffff;dashed=0;verticalLabelPosition=bottom;verticalAlign=top;align=center;html=1;fontSize=12;fontStyle=0;shape=mxgraph.aws4.resourceIcon;resIcon=mxgraph.aws4.waf;aspect=fixed;" parent="1" vertex="1">
          <mxGeometry x="200" y="890" width="40" height="40" as="geometry" />
        </mxCell>
        <mxCell id="CSt-U8afeh_4yDy_RmMx-142" value="IAM" style="sketch=0;points=[[0,0,0],[0.25,0,0],[0.5,0,0],[0.75,0,0],[1,0,0],[0,1,0],[0.25,1,0],[0.5,1,0],[0.75,1,0],[1,1,0],[0,0.25,0],[0,0.5,0],[0,0.75,0],[1,0.25,0],[1,0.5,0],[1,0.75,0]];outlineConnect=0;fontColor=#232F3E;fillColor=#DD344C;strokeColor=#ffffff;dashed=0;verticalLabelPosition=bottom;verticalAlign=top;align=center;html=1;fontSize=12;fontStyle=0;shape=mxgraph.aws4.resourceIcon;resIcon=mxgraph.aws4.identity_and_access_management;" parent="1" vertex="1">
          <mxGeometry x="690" y="1014" width="30" height="30" as="geometry" />
        </mxCell>
        <mxCell id="CSt-U8afeh_4yDy_RmMx-143" value="Route53" style="sketch=0;points=[[0,0,0],[0.25,0,0],[0.5,0,0],[0.75,0,0],[1,0,0],[0,1,0],[0.25,1,0],[0.5,1,0],[0.75,1,0],[1,1,0],[0,0.25,0],[0,0.5,0],[0,0.75,0],[1,0.25,0],[1,0.5,0],[1,0.75,0]];outlineConnect=0;fontColor=#232F3E;fillColor=#8C4FFF;strokeColor=#ffffff;dashed=0;verticalLabelPosition=bottom;verticalAlign=top;align=center;html=1;fontSize=12;fontStyle=0;shape=mxgraph.aws4.resourceIcon;resIcon=mxgraph.aws4.route_53;" parent="1" vertex="1">
          <mxGeometry x="120" y="850" width="40" height="40" as="geometry" />
        </mxCell>
        <mxCell id="CSt-U8afeh_4yDy_RmMx-144" value="SQS" style="sketch=0;points=[[0,0,0],[0.25,0,0],[0.5,0,0],[0.75,0,0],[1,0,0],[0,1,0],[0.25,1,0],[0.5,1,0],[0.75,1,0],[1,1,0],[0,0.25,0],[0,0.5,0],[0,0.75,0],[1,0.25,0],[1,0.5,0],[1,0.75,0]];outlineConnect=0;fontColor=#232F3E;fillColor=#E7157B;strokeColor=#ffffff;dashed=0;verticalLabelPosition=bottom;verticalAlign=top;align=center;html=1;fontSize=12;fontStyle=0;shape=mxgraph.aws4.resourceIcon;resIcon=mxgraph.aws4.sqs;" parent="1" vertex="1">
          <mxGeometry x="379" y="1340" width="40" height="40" as="geometry" />
        </mxCell>
        <mxCell id="CSt-U8afeh_4yDy_RmMx-145" style="edgeStyle=orthogonalEdgeStyle;rounded=0;orthogonalLoop=1;jettySize=auto;html=1;exitX=0.5;exitY=1;exitDx=0;exitDy=0;exitPerimeter=0;entryX=1;entryY=0.5;entryDx=0;entryDy=0;entryPerimeter=0;" parent="1" source="CSt-U8afeh_4yDy_RmMx-133" target="CSt-U8afeh_4yDy_RmMx-106" edge="1">
          <mxGeometry relative="1" as="geometry" />
        </mxCell>
        <mxCell id="CSt-U8afeh_4yDy_RmMx-146" style="edgeStyle=orthogonalEdgeStyle;rounded=0;orthogonalLoop=1;jettySize=auto;html=1;exitX=0.5;exitY=1;exitDx=0;exitDy=0;exitPerimeter=0;entryX=0;entryY=0.5;entryDx=0;entryDy=0;entryPerimeter=0;" parent="1" source="CSt-U8afeh_4yDy_RmMx-133" target="CSt-U8afeh_4yDy_RmMx-115" edge="1">
          <mxGeometry relative="1" as="geometry" />
        </mxCell>
        <mxCell id="CSt-U8afeh_4yDy_RmMx-147" value="" style="endArrow=classic;html=1;rounded=0;entryX=0;entryY=0.5;entryDx=0;entryDy=0;entryPerimeter=0;" parent="1" target="CSt-U8afeh_4yDy_RmMx-143" edge="1">
          <mxGeometry width="50" height="50" relative="1" as="geometry">
            <mxPoint x="80" y="870" as="sourcePoint" />
            <mxPoint x="130" y="820" as="targetPoint" />
          </mxGeometry>
        </mxCell>
        <mxCell id="CSt-U8afeh_4yDy_RmMx-148" value="" style="endArrow=none;html=1;rounded=0;" parent="1" edge="1">
          <mxGeometry width="50" height="50" relative="1" as="geometry">
            <mxPoint x="320" y="869.71" as="sourcePoint" />
            <mxPoint x="400" y="869.71" as="targetPoint" />
          </mxGeometry>
        </mxCell>
        <mxCell id="CSt-U8afeh_4yDy_RmMx-149" value="" style="endArrow=classic;html=1;rounded=0;entryX=0.5;entryY=0;entryDx=0;entryDy=0;entryPerimeter=0;" parent="1" target="CSt-U8afeh_4yDy_RmMx-134" edge="1">
          <mxGeometry width="50" height="50" relative="1" as="geometry">
            <mxPoint x="399" y="870" as="sourcePoint" />
            <mxPoint x="450" y="830" as="targetPoint" />
          </mxGeometry>
        </mxCell>
        <mxCell id="CSt-U8afeh_4yDy_RmMx-150" value="&lt;font color=&quot;#b266ff&quot;&gt;Monitoring&lt;/font&gt;" style="fillColor=none;strokeColor=#B266FF;dashed=1;verticalAlign=top;fontStyle=0;fontColor=#147EBA;whiteSpace=wrap;html=1;" parent="1" vertex="1">
          <mxGeometry x="490" y="855" width="250" height="110" as="geometry" />
        </mxCell>
        <mxCell id="CSt-U8afeh_4yDy_RmMx-151" value="datadog" style="shape=image;verticalLabelPosition=bottom;verticalAlign=top;imageAspect=0;image=data:image/png,iVBORw0KGgoAAAANSUhEUgAAAOEAAADhCAMAAAAJbSJIAAAAnFBMVEX///9jLKZhKKVfJKRgJqRbG6JeIaNdH6NbGqL+/f9ZFqH8+v1gJ6ReIaRYE6H6+Pz18vnx7Pfi2e7g1u3n4PGvl9BWC6Dr5vPArdq3otS7p9faz+lTAJ9qNars5fSnjMt2SbCEXLjSxeSYecN8UrOfg8aOar1tO6uRcL/FtdzRw+R9ULSUdb/EstydgMVyRa6tlM+Na72CWregiMbEnTlNAAATgUlEQVR4nO1daZuiPLOWBAhis8kmIoobuLRL2///vx0CqCAJ4JKnz7wX94e5pmdsoEiq6q4lZa/XoUOHDh06dOjQoUOHDh06dOjQoUOHDh06dOjQ4VkM/voB2KCv6Ybrj2fH72j218/yYfQ1Y7j1fr/nISergiJCIer/9TN9Bv2pv9uO1nvkOI6EFMgDLgO//8e3qWEuDt5xHnO8gpAg8lwFgfbXz/gCBomSWQvvGM0vJ06WkHhbMQIk/a8f9wlommH5B/sYrWJOUpEI+TrRcjjTv37sVpgutiNvvYKOo0qK2EawG1T/rx++BlpiPsazzZ5LBJMFopY1Qz78tRgVDAxrOFzYm1V4CoAgIPjEghEgeH8t0A26MTWTJUtcWSKYjBKD/55oOdD5rwVLFs3aefb5eAGOqgoifEbJWkD8M1LT1y1/662jkFMdWUCK+PXko0Mh+UWxWcLjfy2YO/T9nR3FHIAKwkv22tII3MazjN2Ra5IRRv+Ny+/r7nAxspfR6hTARMveVTJkGxnfnG6k+k+C0GAqmKZpw8N5fdysAlmVUCsf3QJwhK+ePfq46ZKMXL5uJUt2nJ8S8pHQKvjqZiRDzqzHIXPmC1B7cXnIRsLzJDEftYTxdcB5Hi9MslV0Y1gnISNSs5VZyJZLaOU3iZaZMrqnGhFZ0TZTbXxQXkBAFJ5fZXV8vclYzmU1TvSNKm/ZSDh1Gp4TwZXnm/54L9S8A+Ivbm43WTh2/rdhTBWRFW3Ta9cQSNLsutXGtP385WxCCIMHQaX5PWi3QHT9q099UZCRy9dO9O3Hq6tRIS4dK8RPSSvfd1ZnKHDL4P5q1O+CA7e48PbTgbZpYNRjgw1N+RUu8ss04xsRPoZsrRfMppfgbByFhCAkLwzwUjwupl3cQLibkSWF3fArRrkom/TYiVYER7P4MT3ZrPqq+nBSYk6sUW+3NHr+frXah3EcnOZ2mZ9osXRXMj0g7xoQMspjeEQJ4+3D7XQc3LhxWUSArvby/voHxrSaNTvB0/2HA1kVQcyI1IyIfDGAsVeW0XOTP7S5fFsAIKp72yRf9BEhjwreLiIrRmDRL/AOdiQTKc63j0zfzBjY+CSn4ROQTmvCYlEQQfh9/8kiayJo+bqehUWwbcHZrBD9AcjW1PAuUIJy6D0TCowEzims0JEoosIqF0Wy3mpc3TG/o/wvfXMbPaopEf3bSxhCDt4JAPGtJqRm96YkNBC2i2QTDPf29LStM7w8XtD3gFMLrOybpInMclH7R+MtxsTtor1AjbXZMltHW0ps5X1f7EhMilke49HlozllrVavkA6P87DNcpMLw8vdepFcIpy/9PzNOJcdorikWUhPecWcj9QVtpHY7Yp3VSQRGxC+cPlWj1BywPx6t6GsoSm9lPDbSZOEFiywU1Lt2z8SeAaIXxOgEYvS6wyCiU35oBbGL6XDhtxk0/PS9+h4t38j7NPgNQEaYZZvw4dUMebqa/Z8yMnH30zbUf76pkFVQAAYUW8jLr1OkS7FyHkxwDHjW+ClHFM1t0hryDOibYNShMjXCGFJkxdzmv5dIOGCDc+ZxGrQ4rWrNyIsSijVZEvcQB7R/7cWizuL4Z357IeYWRBYFdjmxewDqlml/gbNX1WVoo/nETm4QKxIzbmYnYB1+9BG6OUo1a7JZF0lZFVgK8VPcl0YupXfqNTO69LBKcT1yxevx7AYAws0b5h+0oHLl2/jUrIXhf3DKhc1LL7cr3lNWKtL/Or1ZMq2KfnMjLZZJe8r1Hh17QTQ6z6rT8leFPDytethlNxFXVJvMOdfyL1P19/fa+wEzaYaicOoSNovuQtOoMvQj3jlefbtByJUpKX2eCOChKy6hpbl3TOhqtrg8sX/PH15PXtxe723bagDM+sampUpFKQKoeFN/HQPYe4JhWVPn9RLyCxTM354tRKNW0wdWt5Wdy1zOCUv/jWrzps9QkRRuvGrpLAJlZQpoFDgtJxaLUb3zeOKk1QZkvPyQ+f2/JQSwhXMclHmY3IPALJPwArLV/K2ZjTJWtkUCuvKDQzcJPF+rYSojm68A6NyXyCR2gYsrFDw0Rp46tVQIQqlMzP14y/E5EUBzLJterWGCCqCYG+IRXnMvR8KD01Z+t4y/Qy/f8iYVMCsa2jwUyUbgK8syDp9vIf6iVZcf5oV1i8oCYH5sGfWU1NmBbb82R/wkFnrL1NZwIO3KJeuFMoNjDkMAhiTE1BFsOqLmhHr18KpoIxmmHk19KAqZbagUm+RvBfdf6DAVSCXkYQUI/4lLXMZp2spJ1ygbIIe2DRdwgx6XL+GEqNcFJ1NiVw09v3dLLgu8mOipl+uCYCmO63qmanKqIR488kE8IKqylf5voTx46+WagLFChoZ23p3wYy29ekSKui2r0Q1rL7i4Y1q8iKaNDffebVhMLNcFLEUhAH20/MJtwYLkhMciVwuSu0wFJz92m6T71zWrSK7RmGaAeBXWm8w3HqetzUpztg9ibwEvsdWy5hDP9W0UTdv81dBy4O16eIZrk6jZyJXs4bX8MxOsBFdfiphi1/WnyQiNQEGf2HV7D2mpGsfGcxH0L9QM1Lsmr135KY8RkRxSl1DjlVfFFU3AKHr5AOgNnKS4uvPwKXuGyYkQ9vTqA1iRWp0mkOU2ZT0iN0m6f1YkRpC21CGunLiO6D17bI7wVZpG7rumk8VvKbmwttcwlOYpWJo/JRZ+YnqEMH+AxfXfPsnFmQBH+Tjs6wvqVMBg56rfRfU+Il/211o9spB9yMrWXjSp/BEnlVfVG9Bq9Cid1XfjaVyD3+m2RHZmrYiUS/Bp7j899m+9+D7+Iy1kJuv2ZUQe0OKgMk7f5O3eeX9f63zUk4jgZhVts2gHrt497COXz4BzecOdkGRkBmp6VMTKMK71ZKRWrj0rcOSIiEnsuoa6v1QJXzbBw8vd2luRXLambma+uybIDeX45f6+/a1BzbIDZl6e120IJFZXxQ9LIWb/vvKbx1jWYTQ+b2F8LQ9gyrZvE/hQHP5iXX7BHNzD8fop/D0NMuG7J7uMymU+tQsn7Tdf96C01gbB06h46gschkWzeUn1BSaW2rY9qLwtKQCvl9Dc92rMGoqCmj8HdJKJmOvNSMoptFoR/QyQBZOUb/QKwpgv5IiiiDuZNOyXqTNCutNX0IMJk6xTz1p2fBaTYdrZ+CPl/si0rwhgApeXMTEKdbvG05c9ii6OOQm8xb5Kntyt6Sk5iioIFmNf844Uq0WgD4BcpX0Dl4/UTqWhicJeE0Wx1MLx6bKaRrAi7LK/fzaO33Q7w2T/3uhtawFRg09vOLvnpY8dUNFWu3q8vF9W8qfuq/p7m6VW7Uk5BcU7jSfbf3p9dcNh1Wj6bCp+5MPJJrr1y4Cr0b0RGB/iV/fZjQ8nL8vgZyeQ4WKIHJxNPKHD67BwWc+PiZW8SmbhytwAdVP/aocdCLKNnbDlBJCQRXwlD0eCbITRLORSbTPqbZ8RqYytBZTTWoiqYP0lYgw31Ufuj9C10unGifMz962xqVjx0zr6XgLWkMTQfqEJ/rvm/icN49WtltWSH+etQtBQQrCaLYbGg2UDOfDHRZFtkFTeytG3ZkZ4weLwgvcZuvmK9nXFxuI/SwfryLPt1qRMdzdwaaVlhohFlCfdN+mdBpASQ3P49Fo7EWCnPIIsWXRTLs+B5vkPiX7VQK1ebBvmLuR93MtYANFwMhpktI2ODnjtcfdHWyS+5RRByUk4XDl99wzHrsXc0hA5H2O9i2DIWOC/8TVWjanZxYt3AVpjupQhdnAD15EkhDEUtli8WjZNtqz0w7zrfCR1AkB5EPyZQDCHFUXh+uiwnPh0tsuLGt0EtFNpRUhbM2i9TidSoA7NNl0nTS1maeAVQn7Ec/xB7Ng/aa7WaA6quw43O8T3fe2oOKoCZ9phT9MZu62WENOIuy4JO6SKjHiwPUXlvaMW9NDkGafcf8iYJA46dGTQw1riOMu9QPlfk/IoiY9xjdi0pOxbDyWxAHSae4Z+kQxHLdip21tKblSmTSatnCI8Juw7w7SJ/zXTsib/ft4L7E5PdPCIRKPq1sqzgC8C/x6MxOKJWQzvG3XKCHgSKbDgB8IWdPMDT/HSoCLRGzyGH6jHpKLCnoMskd7A/001QfSTAfOidEOp7wHah76poUXovXXLl9PWvdq5HAlVNiE4pPXjBpNG9wFrXqJE5FP9aNZk/XDq7rmMtNefbxhi2OlPoiapDCGStP+X/GpLHV/DoWHvN21apL26vsy1kgmpIZwdKYoINUjeM85RNwt9AXXxX19vbOKXxQ+W86oDbM2ZSrQNWMnP2P78nQJCu8vxbxunjTyHWLezmZ4G62PNr13TQd2EpU8YRmu5xfAZHY1wNE1FklJzRDLy6Q4Q+0ewNunrt/McJ5wiNY9hBGCjEBYNzKVtrWlNh0xkXBI1UOVNN7shoGDzxa2Q7+o7EA5Ym28l0zSXv2080Vm0mg6jWlbtIF2xqB1L9PDKVIU7nru/Z/S6Tg6JjVsaJtO7sEEYpMZWUIQt7N9evhwCyDNCn2RKTfCITUjUkNOmUKukecnJgq0CwZm1YYIsZDFzMZu4Il8jKaAkBwiCpvpylaoHadxx7AhyAYnvBXWkFkLHyEpLESpZ+7r1nCx2y2GLomAJlFJu06fxhk1qRvEQ6RAzOT0TDUGRuuMPbmj7Xh9CeBEWW3GlTjCF9u5/F1jKih1g/gxGDUpVppq1Icct7H7lh1ZPj44K4PnUIuy7aC5+JOOnk+7lwImpQv3weVPCFtPGwNBdNbldQzAVwuHeG4Y/JFAwnfERXDA5qSHUVYTSjChryEQwtIyJm6Gr35ub5vFrUbv0r0jLYykWwkyacMsD6KmN9EtAh4GxSdIjPCkEu4sJQT3m4VxNRmbFsWtNOFjYQnZtGHql8LpxzrNMgH3xRf8wwxVS36pWQFQhptsEm1zGojL3aCBYxxGZ0sKTTVftQfzMH927poylir5v/soCig4p9m23zRsIEV6GiE9087obEmhy7QhY4nDWPkWwy2kyvmh0nlfgFoUJ1MJ8WkEDScbGJGae4SoNL3CI+L4W/7JrHQx7B59e7vvx0g7BdKsDSNSc+83a6xE4BhHmN1/KJeHB/TvsaiXMGXwa6yIbOa13lx+iz2yde7zOPsXvpwdW7fclVVg5f7FEsosBOy51wC8RXcgHonxFeauYM6D4uxav00tkggFv7N0ViV95Ng76F93KWhxeT9ZRCV/E7hF5C6hRjvs14zUDabTwRjNyLgyx1ZKkIST1/nNiUNEdwlb0DMa0nFfqcFj9M06+TCWuuanO/DUJzXTxMREObdlN1+zMokPVoR0WnQ6fIxNceaaMv1qd0guWfF8zoMl3x3oIHxeQiAi2VEu6/EC74S0T5LR4K88Qmy3hr0Ruo7lnYL7XJLzU3YU8FBQ5dPaO9z9k+6wk/DaR9vOGeGmAqw4muEHN47Q2KhaEE6UYXz59vzHzAG+BCPatsgT+y1Tzomt4aPxcY4NVO4Q+w31nRwQSdzpctwN3WrlUTPSrPfLU5lrMc0fr2XZGs+S5/MvpuOzHphxY68xktRJ8O1tiS/R2o5/w/QSxK6ID+D6HE6r7GBxHmGWCTRrck08RLKqzO2DT/K2xmK0XkmOLCi5x1LZHCe9pVKCNg63dPQ0o5REM5NonCAHq815N9UrQVnfGPr2PIyhoJSG8zhsRpvtrzf5ittkQNP8I0iUCtfesTGsnvLjkayE0dIzCYlIzfVH6/kJSAKsfh0oI1JzPzoDxBakIvUMcWRvl3zmEIsz+IAoIJGb21uflPKfHuzflaoK1C8UVtkcmC2uwaSZVSTeJQsMt1KWJ8taDgAUBUcOjqMdKQjTF+PjhXfwl60TRcvx9glkMkq1IXph+/ZxOU+oJDYnbXu1nISdSKef9WhKMPau6dshJjD13yqcsAARSRM2Q+jLTTWo6TWaai7h1Mk8jDtfnndu1Zzo1mK8vMSA1kicSZZYJEmW4Wn+vT6PiHv7fTzMbqTN2y1KmO5lDWVTO/oV2QbadDQ7XpRU46iLhhInEcSn+Xq084ftv+7sBRTsP1SSnTKpT64nuzRVv95g9UWY2mH43nIPHEkka1yirvj8jKME89l2YVImLX8Y2p4HPD4op8bR0T40ZWuSSC5vNJkpWWksh+vvvNNkopK+VD5Rs0Qw1eH3P8fzeMH0u5wJWKHTzy+mHa0afHFvacZ+cFSS8jB9uLM3+wAKla+fxQZEkoVEzY4z7+C7GsvNSIdlGe0Zrxbx15mjY4lTdu5o+bPiEyHAg2SKhLg4XEXrkT+0ms4F/X9CEildu5fSuFyWil/CnnCd9BBGHEazQ2I/dFYjAxki2aTXXqH7FwsnJl/BaqaeNmeP7PP/GbhBIRR3+ETNBFWC8fxoj7e++w+uWAWYd9+S4/vVPGEypmvo/5CaNcBHeFrl7QBvlcj86zBwPVViNovkP4Zedcsm/rZ7wOQ865/gfChrl+5xODxo1yj0T0APV96NEA+mXjaivaat9t+DK6ko+rVHh5H9G+WMTNr875jNHjYsAg4FJOEamsMJs0GVfwT9qIo3vvmF5M0/zVbI8I8noCRBuJQEdGfzf4GzVGEMTT+Baf1vitehQ4cOHTp06NChQ4cOHTp06NChQ4cOHTp06PAy/g/jBkvk53cISwAAAABJRU5ErkJggg==;" parent="1" vertex="1">
          <mxGeometry x="510" y="880" width="50" height="50" as="geometry" />
        </mxCell>
        <mxCell id="CSt-U8afeh_4yDy_RmMx-152" value="teams" style="shape=image;verticalLabelPosition=bottom;labelBackgroundColor=default;verticalAlign=top;imageAspect=0;image=data:image/jpeg,/9j/4AAQSkZJRgABAQAAAQABAAD/2wCEAAkGBw4PDhEODw8QDw8PDxIVDw8NGQ8OEA8WFRcWFhUSFRYYHSggGB0pGxYVITEjJSkrLy4uGh8zODMtNyktLjcBCgoKDg0OGxAQGy0eIB8rNy0rLi0tLS0tLS8tLS0rLS0tLS0rLS0tListLy0rLS0tLS0tLS0tLy0rLS0rKy0tK//AABEIANkA6QMBEQACEQEDEQH/xAAcAAEAAgMBAQEAAAAAAAAAAAAAAQYCBQcEAwj/xABHEAACAQIBBgcMCAUEAwEAAAAAAQIDEQQFBhIhMVETMkFUYXGRBxUiQlJygZOhscHSFBYXNXSys9EjM1OS4TRDYoKiwvAk/8QAGgEBAAMBAQEAAAAAAAAAAAAAAAECAwQFBv/EADERAQACAQEDCQgDAQEAAAAAAAABAgMRBBIxBRMUITJBUVKRM2FxgaHR4fAVIrHBI//aAAwDAQACEQMRAD8A7iAAAAAAAAAAAAAABpcuZyUML4H82r/Tg7aPnPxff0HXs+x3y9fCPH7KWvEKbjs6cZVbtU4KPk0fB/8ALb7T1cexYad2vxZzeZaqpiqstcqk5PfKUpe9nRFKxwiFdWVLG1oa4VakfNlOPuYnHS3GIn5Gstzk7O/FUmlUarw3TtGXokl70zky7Bit2f6ytF5hdMj5aoYuN6crTS8KnLVOPT0rpR5OfZ74Z/tw8WtbRLZGCwAAAAAAAAAAAAAAAAAAAAAAAAAKzndnA8OuAov+NJXlJf7UX/7P/O49DYtl5yd+3CPqzvbTqhz9tt3bbbd23rbe9ntMQAAAAfTD1505qpTk4Ti7xlHaiLVi0aW64S6Vm3lqOLpXdo1YWVSK2dEl0P2HgbVs04be6eDettW4OVYAAAAAAAAAAAAAAAAAAAAAAAefKGLjQozrS2U4t237l6XZF8dJyXisd6JnSNXJcViJ1akqk3ec5NyfS/gfTUrFKxWOEOfi+ZKAAAAAAPdkTKLw2IhVXFTtUS8aD4y+PWkY58UZcc19PitWdJ1dXi01da09jXKfNuhIAABrco5eweGdq+Ip05eQ3pT/ALVd+w2x7PkydmsyibRHFrY595Lbt9Ia6XTrpduibdA2jy/WPurzlW5wGU8PiFpUK1Oqlt4OUZOPWtq9Jz3xXx9qJhaJieD1maQAAAAAAAAAAAAAACsZ/wCI0cLGmv8Acqq/VFN+/RPQ5OprkmfCGeSepQD2mIAAAAAAAB1DNXEOpgqMntUXB/8ARuK9iR89tlN3NaPn69bopPU2xzLDYHLs8M+qlWUqGCm6dFXUq8dU6u/Qfix6VrfQtvt7JsEVjeyRrPh4ML5O6FGb5eVu7b2vpPTZoA+lCtOnNVKc5QnHizg3GS6miLVi0aT1wOnZkZ6vESjhcU0q7/l1dUVWt4slsUurU+h7fF2zYebjfx8O+PD8NqX16pXk8xqAAAAAAAAAAAAAAp3dFT0cO+TSqe6NviepyZxt8mWTuUo9ZkAAAAAAAAdHzHX/AOGPn1Ldp4XKHtp+EN8fBvziXU7um5YdDCRoQdp4puLa2qnG2n23jHqbPQ5Ow7+TenhX/e5nknSNHJT3mAAAATGTTTTaaaaa1NNa00+RiY1HdM1cq/TMFSrvjtONVLV4cXoyduS9r9TR8xtOLmss17u501nWNW2MFgAAAAAAAAAAAAK1n9h3LB8Ild0akZPqd4v8yfoO7YMm7l08YUyR1Ob8O9yPa3mJw73IbwcO9yG8Mo1t+oneH1JQAAAHVM3MK6ODowas9DSkntTk3JrtZ85tV9/Laf3q6nRWNIbIwWcp7q9VvHU4ckcNFrrlOd/yo93kyP8Aymff/wAhhl4qUeizAAAAB1HuS1G8LXhyRr3X/aEb/lPE5Uj/ANKz7v8ArbFwXo8xq5nnjnpXdaeHws3Sp05OM6kbadSS1Ss/FSerVrdtp6+y7HXdi141mWNrzwhVHlnGc7xPra3zHbzOPyx6QprJ35xnO8T62t8w5nH5Y9INZR35xnO8T62t8w5nH5Y9INZO/OM53ivW1vmHM4/LHpBrKO/OM53ivW1vmHM4/LHpBrJ36xnO8V62t8xPM4/LHpBrKO/WN53ivW1vmHM4/LHpBrKO/WN53ivW1vmHM4/LHpBrJ36xvO8V62t8w5nH5Y9INZR36xvO8V62t8w5nH5Y9INZY1Mr4uScZYrESjJWcZVa0otbmm9ZMYscdcVj0g1l5OEl5T7WX0QcJLyn2saJfKdWpHwozlq2ptyXYzHJWY/tWUxLZ4DFcLHXqkuMls6xS+9BMNlSfgo3jghmEAG2zYyW8TiYpq9OnaVV8llsj6Xq6rnNtebmscz3zw/fctWNZdQPnnQAcz7rWCaq4fEJeDKEqcnucXpRXpUpdh7PJd/62p82OWO9QD1WQAAAAOt9y7BungHUa/n1pSj5sbQXtjJ+k8HlK+9m08I/LfHHUuB57R+e5Sbbb1tu7Z9Q5UAQSIAAQAAgCABIgABAEAYz2PqZW3ZlL7ZE40vNXvOXDxWlYKPFR1xwVZkoevJmTquJqKnSjd+NJ8WC3yfIZ5ctcVd6yYiZdNyNkunhaSpQ1vbOb2zlyv8AwfP581stt6XRWNIe4xSAazOPI8MbhZ4eTs3rpz26E1xZfB9DZts+acOSLwraNY0cOx2DqUKsqNWLhUpu0ov3rentT5T6al63rFq9cS5pjR8CwAANpm5kSrjsRGjC6irOrU5KcOV9b2Jcr6EzHaM9cNN6fl701rrLuWFw8KVOFKmtGFOKjCK5FFWSPmbWm0zaeMup9So/PJ9Q5QkQBAACAAEEiAAEAAIAgDOjRlVnGlDXOpKMIJ6k5Seilfk1tFbzpWZ9yYb7J+Z+U6U5aeEmvB1OLpTT1/8AGTPPxbRiieuV5rLeYXNjHSSXAOPTNwjb2nR0zDEdpG5Le5OzHep4iqreRR5euTXw9Jy5eUu7HHr9lox+K2YLBUqEFTpQUIrkW19Le1vpZ5mTJbJOtp1aRERwegokAAANNnHm1hsfBKqnGpFeBWhZTj0dK6H7Do2fab4Z/rw8FbViznWU+57j6TfBKGJhyODVOfpjNq3obPXx8o4bdr+rGcctbHNHKbdvolS/ToJdrdjbpmDzQjct4N5kjucYmo08VONCHLGDVSq+jyV13fUc2XlOlexGs/T7rRjnvdHyRkqhhKSo0IKEVrb2ym+WUnys8fLlvltvWnVtERHB7TNIB+eD6lygEAQBdMkdz6eJw9LELFRgqsFLRdNy0b8l9NXPPy7fFLzXd4e/8NIx6xq9n2YVOeQ9U/nKfyceX6/hPN+9H2X1OeQ9U/nH8nHl+v4Ob959l9TnkPVP5x/Jx5fr+Dm/efZdU57D1T+cfyceX6/g5v3o+y6pz2Hqn84/k48v1/BzfvazOPMWeCw08S8TGooOC0FBwb0pKO3Se82wbbGW8U3dPn+FbU0jVUDuUQBAHtyH/rML+KofqRM83s7fCf8AExxfoI+ZdIAAAAAAAAAAAAAAAA/O59S5UAAIA6/mrnBgaeAw1OpiqEJxoxUoynBSi9zV9R4e0YMtstpis8fBvW0aNp9Z8nc9w/8AfD9zHo2byz6J3o8XowWWsJXnwdHEUas9FvRpyjKVlZN2XJrXaUvhyUjW1ZhMTEveZpa3FZewVGbpVcVQp1I20oTnCMo3Saum9zTNa4Mlo1rWZj4I3ofL60ZO57hvWQ/ct0bN5Z9Eb0eKu5/5cwdbJ1WnRxNGpUcqVoU5xlJ2qRb1J7kdWxYMlM0TasxHX/it7RMOUnssQCCRMKsoNTg3GUGpRktsXHWmvSil41rPwTDe5JzpyjKUlLGVpWjytb+o4MWDHM9dV5tLd0s4Mbb/AFNTtR0xsuHTswrvSz7/AON5xU7UT0XD5YN6Tv8A43nFTtQ6Lh8sG9J3/wAbzip2odFw+WDeli8u4znNXtHRsPlg3pO/uM5zV/uY6Nh8sG9Ly43LWUEnKGLrK22N0+zUTGy4fLBvT4tb9aso88rdq/Yt0TB5YRv28T61ZR55W7V+w6Jg8sG/bxPrVlHnlbtX7DomDywb9vE+tWUeeVu1fsOiYPLBv28T61ZS55W7V+w6Jg8sG/bxWHNjP+vCrGljZKrSk0uGajGdK+yTtZSjv5eXXsOTaeT6TXXH1T4eK1ck97qF1vPEbvzufUuVAAkQAAgC4dyv7xl+FqfmpnDyj7H5/dpj4uuHhtnEu6B964nzqf6VM+h2L2Ff3vlz37SvHSqgCABIgDGWx9RW/Zkh6siceXm/E5MPFeVgo8VHXHBVmSgAAAAACts0QgAAAAANp3/xX9WRj0fH4J3pawsIAAQAAgC4dyv7xl+FqfnpnDyj7H5/dpj4uunhtnEe6D964rzqX6VM+h2L2Ff3vlz37SvHSqi5IgCLgQBEtj6it+zJD15E48vN+JyYeK8rBR4qOuOCrMlAAAAAAFbltfWaIQAAAAAAAZpQAAgABAFw7lX3jL8LU/PTOHlH2Pz+7THxdePDbOId0H71xXnUv0qZ9DsXsK/vfLnv2ldOpVAEAAIAxlsK37MkPbkTjy834nJh4rysFHio644KsyUAAAAAAVuW19ZohAAAAAAAIM0oAAQAAgC49yn7xl+FqfnpnDyj7H5/dpj4uvHhtnD+6F964rzqX6VM+h2L2Ff3vlz37Su3OpVAEARcCLgRIrfsyQ92ROPLzficmHivKwUeKjrjgqzJQAAAAABW5bX1miEAAAAAAAxM0oAAQBAC5IuPco+8pfhan56Zwco+x+f3aY+Lr54bZw7uh/e2K86l+lTPodi9hX975c9+0rlzqVRcBcCLgRcDFsrfsyQ2GROPLzficmHivKwUeKjrjgqzJQAAAAABW5bX1miEAAAAAAAwM0oAARckQBFwLl3KPvKX4Wp+emcHKPsfn918fF2A8Nu4b3Q/vbFedS/Spn0Oxewr+98ue/aVy51KouBFwIuBFwIbK37MphsciceXm/E5MPFaVgo8VHXHBVmSgAAAAACty2vrNEIAAAAAAB8zNKAIuSIuAAgDe5l5dp4DFvEVYTnF0Zw0aWjpXlKDv4TSt4LObasM5qbsdXWtW2krz9qeD5viuyj855/8Zk80fX7NOchzrOjKkMZja2KpxlCFVw0Y1LaS0YRi72bW2LPT2fHOPHFJ7vuytOs6tVc2Qi4EXAi4EXAhlbdmUw2eROPLzficmHitKwUeKjrjgqzJQAAAAABW5bX1miEAAAAAAA+JRJcCAIAgCLgRcCLgRcCLgLgRcCLgRcCCL9mUw2mROPLzficeHitKwUeKjrjgqzJQAAAAABW5bX1miEAAAAABsO9FbyWZc/VO7LUMsIuBAC4EXAi4EXAi4EXAi4EXAi4EXAi5IgrfsymG2yJx5eb8Tjw8VpWCjxUdccFWZKAAAAAAK29vpNEIAAAAH3wWFlWq06MeNVqRgujSaV/bcre8UrNp7iI1d2700PIR8vzt/F1aQ5RnxmlXw1epXpU5VMNVlKalTTlwLk7uE0tivez2Wtyns7JtVb1itp0mPqxvXSVO4SO9dqO/SVEcJHeu1DSRHCR3rtQ0kRwkd67UNJEcJHeu1DSRHCR8pdqGkiOFj5S7UNJEqV9mvqAgCLgRcCLgRcDFy1pLecufNGm7C0Q3ORF4UvNXvKYeMplYKPFR1RwVZkoAAAABjOVk3uTfYSK4XQAAAAC99y7IjqVpY2a8CjeNK/jTatKS6otrrl0HmcpZ9K83HGePwa4697qB4jYAhxW5ARoLchqGgtyGoaC3IahoLchqGgtyGoaC3IajkXdjyNL6XRxMEtGrR0JcnhU23f0xmv7Tv2bW1dPBS3U5/wDQKnR2nRzdldYPoFTo7RzdjWD6BU6O0c3Y1g+gVNy7RzdjWD6BU6O0c3Y1fajgZLW7fsWjHKNW3yZBRbS3dp0Y40VluqaskjphVkAAAAAHmyjU0aUv+Wpenb7LkwNGXQAAAG6zXzdrY+roxvGjFrhq3JBeSt8uj0s59p2muCus8e6Fq13nacBg6eHpQo0o6NOnG0Uve97b1t9J85e9r2m1uMuiI0egokAAAAAAAAAV/PnJP0rAzilepSfCU7bW4p3iuuLkuux0bLk3Mka8J6lbRrDjnBI9ndYnBLpG7AcEukbsBwS6RuwHBLpG7AlUU9l31DdGywWF0Fd8Z+w2pTREy9RdAAAAAAH2xmbGOr0IYijTVSm9LwItKpqdtLRdrrVqs79BhO14qXmlp0n6LbkzGqtYrCVaLtVp1KT3VYyp+9HTW9bdmdfgpMaPhpLei+g9+ByRiq7So4erUv40Yy0PTJ6l2mV82OnatEJisyuWQe5vNtTxs1GP9Ci7yfRKexei/Wjzs/KcR1Yo+c/ZpXF4uiYLCUqFONKjCNOnFeDGCsl+76TyL3ted606y1iNH3KpAAAAAAAAAAABzTOzI30au5Rj/BqtuFlqi/Gh8V0dR72x5+dppPGP3VheuktHorcjsUNFbkA0VuQDRW5AEgJAAAAAAB78iZMliq8aSuo7akl4sVtfXyLrMc+aMVJtPyWrGsuqUqcYRUIpKMUlFLYktSR85MzM6y6GbRA+aoQTuoRT3pK5O9I+hAAAAAAAAAAAAAAAAeXKWAp4ilKjUXgy2NbYvkkuk0xZbY7RaqJjWNHL8q5NqYWq6VRdMZLizXlL/wC1H0OHNXLXeq55jR4zVAAAAAAAAAA+uEw061SNKnFynJ2SXve5dJW960rvW4QmI1dOyBkeGEpaC8KcrOpPynuXQuT/ACfP7TtE5ra93c3rXSGzOdYAAAAAAAAAAAAAAAAAAADx5UybSxNPg6quvFktUoPfFmuHNbFbeqiYiXOst5Br4RtyWnSv4NWPF6FJeKz3cG1UzR1dU+DC1ZhqjoVAAAAAAAe3JWSq+Kno0o3SfhTeqEOt/DaZZs9MUa2laImeDouQsiUsJC0fCqSXh1Htl0Lcug8LaNptmnr6o8G1a6Noc6wAAAAAAAAAAAAAAAAAAAAABEoppppNNWaetNbmTE6dcCs5UzNoVLyoPgJPxeNTfo2x9GroO/DyhevVf+3+s5xx3Kxjc2cbSv8AwnUivGo/xL+jjew9HHtmG/fp8f3RSaTDUVIOLtJOL3STi+xnTExPBRiSJiruy1vctbInqGzwWb+MrcWjNLyqn8Ndfha36LmF9qxU429OtaKzKy5MzJhG0sTPhH/Tp3jD0y2v2Hn5eUZnqxxp75aRj8VqoUIU4qEIxhFbIxSSXoPOtabTrM6tH0KgAAAAAAAAAAAAAAAAAAAAAAAAAAHiyt/KZrh7SJUOr/NPZr2WPeuWb3EfoPK2ntNatucywAAAAAAAAAAAAAD/2Q==;aspect=fixed;" parent="1" vertex="1">
          <mxGeometry x="590" y="890" width="40" height="40" as="geometry" />
        </mxCell>
        <mxCell id="CSt-U8afeh_4yDy_RmMx-153" value="Cloudwatch" style="sketch=0;points=[[0,0,0],[0.25,0,0],[0.5,0,0],[0.75,0,0],[1,0,0],[0,1,0],[0.25,1,0],[0.5,1,0],[0.75,1,0],[1,1,0],[0,0.25,0],[0,0.5,0],[0,0.75,0],[1,0.25,0],[1,0.5,0],[1,0.75,0]];points=[[0,0,0],[0.25,0,0],[0.5,0,0],[0.75,0,0],[1,0,0],[0,1,0],[0.25,1,0],[0.5,1,0],[0.75,1,0],[1,1,0],[0,0.25,0],[0,0.5,0],[0,0.75,0],[1,0.25,0],[1,0.5,0],[1,0.75,0]];outlineConnect=0;fontColor=#232F3E;fillColor=#E7157B;strokeColor=#ffffff;dashed=0;verticalLabelPosition=bottom;verticalAlign=top;align=center;html=1;fontSize=12;fontStyle=0;shape=mxgraph.aws4.resourceIcon;resIcon=mxgraph.aws4.cloudwatch_2;" parent="1" vertex="1">
          <mxGeometry x="670" y="890" width="40" height="40" as="geometry" />
        </mxCell>
        <mxCell id="CSt-U8afeh_4yDy_RmMx-160" style="edgeStyle=orthogonalEdgeStyle;rounded=0;orthogonalLoop=1;jettySize=auto;html=1;exitX=1;exitY=0.5;exitDx=0;exitDy=0;exitPerimeter=0;" parent="1" source="CSt-U8afeh_4yDy_RmMx-155" target="CSt-U8afeh_4yDy_RmMx-137" edge="1">
          <mxGeometry relative="1" as="geometry">
            <Array as="points">
              <mxPoint x="150" y="1390" />
              <mxPoint x="150" y="1240" />
            </Array>
          </mxGeometry>
        </mxCell>
        <mxCell id="CSt-U8afeh_4yDy_RmMx-155" value="Client VPN" style="sketch=0;points=[[0,0,0],[0.25,0,0],[0.5,0,0],[0.75,0,0],[1,0,0],[0,1,0],[0.25,1,0],[0.5,1,0],[0.75,1,0],[1,1,0],[0,0.25,0],[0,0.5,0],[0,0.75,0],[1,0.25,0],[1,0.5,0],[1,0.75,0]];outlineConnect=0;fontColor=#232F3E;fillColor=#8C4FFF;strokeColor=#ffffff;dashed=0;verticalLabelPosition=bottom;verticalAlign=top;align=center;html=1;fontSize=12;fontStyle=0;shape=mxgraph.aws4.resourceIcon;resIcon=mxgraph.aws4.client_vpn;" parent="1" vertex="1">
          <mxGeometry x="51" y="1370" width="40" height="40" as="geometry" />
        </mxCell>
        <mxCell id="CSt-U8afeh_4yDy_RmMx-156" value="" style="sketch=0;outlineConnect=0;fontColor=#232F3E;gradientColor=none;fillColor=#232F3D;strokeColor=none;dashed=0;verticalLabelPosition=bottom;verticalAlign=top;align=center;html=1;fontSize=12;fontStyle=0;aspect=fixed;pointerEvents=1;shape=mxgraph.aws4.authenticated_user;" parent="1" vertex="1">
          <mxGeometry x="-60" y="1370" width="40" height="40" as="geometry" />
        </mxCell>
        <mxCell id="CSt-U8afeh_4yDy_RmMx-157" value="" style="sketch=0;pointerEvents=1;shadow=0;dashed=0;html=1;strokeColor=none;fillColor=#DF8C42;labelPosition=center;verticalLabelPosition=bottom;verticalAlign=top;align=center;outlineConnect=0;shape=mxgraph.veeam2.open_vpn;" parent="1" vertex="1">
          <mxGeometry x="-40" y="1390" width="20" height="20" as="geometry" />
        </mxCell>
        <mxCell id="CSt-U8afeh_4yDy_RmMx-158" value="" style="endArrow=classic;html=1;rounded=0;entryX=0;entryY=0.5;entryDx=0;entryDy=0;entryPerimeter=0;" parent="1" target="CSt-U8afeh_4yDy_RmMx-155" edge="1">
          <mxGeometry width="50" height="50" relative="1" as="geometry">
            <mxPoint x="-20" y="1390" as="sourcePoint" />
            <mxPoint x="30" y="1340" as="targetPoint" />
          </mxGeometry>
        </mxCell>
        <mxCell id="CSt-U8afeh_4yDy_RmMx-161" value="Private subnet" style="points=[[0,0],[0.25,0],[0.5,0],[0.75,0],[1,0],[1,0.25],[1,0.5],[1,0.75],[1,1],[0.75,1],[0.5,1],[0.25,1],[0,1],[0,0.75],[0,0.5],[0,0.25]];outlineConnect=0;gradientColor=none;html=1;whiteSpace=wrap;fontSize=12;fontStyle=0;container=1;pointerEvents=0;collapsible=0;recursiveResize=0;shape=mxgraph.aws4.group;grIcon=mxgraph.aws4.group_security_group;grStroke=0;strokeColor=#00A4A6;fillColor=#E6F6F7;verticalAlign=top;align=left;spacingLeft=30;fontColor=#147EBA;dashed=0;" parent="1" vertex="1">
          <mxGeometry x="-245" y="327" width="170" height="140" as="geometry" />
        </mxCell>
        <mxCell id="CSt-U8afeh_4yDy_RmMx-173" value="gitlab" style="shape=image;verticalLabelPosition=bottom;verticalAlign=top;imageAspect=0;image=data:image/png,iVBORw0KGgoAAAANSUhEUgAAAOEAAADgCAMAAADCMfHtAAABHVBMVEX////gQyn6bSb6oSbgPyTjXUv6bibhRCn6bCP6oyb6aybfPSD//PvfPiLfOx3jRyn6aBjfNxb99/bxXif98O3oUCj6YgD86eX0ZCfsVijzYif6nCbeMg3iSi/eLgDlSyj5ZRD4WgD6dyb5iSj6ngnwraH2yL/739f64+D2z8nqfmjsmI3pg3XiUDj5by36pIf2cTX5ekT808f5fSb5l3X5kyf5gib5kCj86N3uk3/qdFzlXEPzu7LwpZrrkYTxs6rmdGXnbFXtn5byfVfsTQ/2jmj6tqHzf1r2po33fkz6xrT82c74uqn4tZP0qZf5mnr5p4T7uHr5yKX5oT35qWH4kgX70rX83sn3n1n5ojb5vIv5yqv6sGP5p072oWETXsd6AAALK0lEQVR4nO2dfVvbOBbFayd1jOMkJi9NAqGkEAjQlpYWWgptaWe2UKBDpy8MO+x2v//HWMtOiO1I9pV0ZSfz+Pc/z82xju6RZIXcu5eTk5OTk5OTk5OTk5OTk5OTk8OFnVqh4cbOzpuTYVr1fOrbj4/e7GxspVCq+fi4Vy5Xe083UnumLu33xcVKtdw7fqu8VH2nWtQIxepj5cUm3K+W/KqlE9Wl3vX8Ui4PN1UXu+PN4rhoSXVVe6U4rqVVjtLyafv+pGr5o9pam5NSWvE4rW5zUp1ULa20VZaqPylPamll5XPCx34fUKhVNlTWGj4NjKFWfVJXWeyOrVDV8oemwloni1qQcjo23ewFi5ZWttWVqh8XQwoX1acTYaccqlp9r67DDUMPk/QaZaUC2GHjaKWausnxIfww3UhUOSXGbEaeq7aorNc0V4qp1QrwoRKpWrmvqtRJtJTb11TVmhCM+5FNtUs1pcJhOJqI6rvp21K0qqZqSXy5QqmlPPTDcT+y6ZGadc27xalSKYR++zhqUuIdJcvv+lSfIVNiRfWedDvaSf0HqyISp5q2R0/1FmpnavKTB1tRYdMjWimtongzE437ESpiqk0zqaY89C+oztGKCiJxYyoM1T3NANMJNfIp+uxoTq3YRqgN/eZU3I/Aj8RN+nxQHfpvGQLd+Y/ca2i5O/aLwi2U/ZhZFnvnZjP6DCn1WN12rXnEmP3u7NjBLbvBMimxqbqjoe2HzLLaIu7s+Mh8lm5eqDtVYJsUu9fQFt2TUm8wS4Uox5TFjcS4Z+kOImapIJcxJnUlIvaaNnvCE5StTdkNnFBGXH5vMtJ+RPUJWqUQ9bjZ747hU7ReY+/EPkt3Rqjppptxs9+lh7b9blfiK2k1NTb9jR1R/pP9iGXTq4RKWvUdUqUQMXE/4iGWTVmr38nDVBL60fNnypNFyqnthOng0lMR+onWcXsNzpOND0PUhxmilmQdrFX/VqJJNSWhP4yN+9GTRTnqe5toFpfeC4RKYQDW0UorGL2Getg19TDfI1QKYU+9rqCxiBCJELOQ0Mc+kEqK+1HdorxNIWYhdsEO/ZgdaRCELg7pMy5V5CO35Lj3kT8IYx4FRah8xLXpVgliUhKJh5KV4jcwAXq4hwonMJO6EiXNE75eEsfiFY60EeyTrwjlHTnznCSuDe9ADf0mqIN7VKR6jQ3sM55CTJsCOylB7kTqEP4otepvWPLuUW59sClVZHaJb6B9RiPdFO918CV4+mtyx0TUN8zMZ4kY+hwmJb1GvBA0DH0W0Xb6lFsfMUicSNWfcJiU3JDACv2tIizufUpl4Uc7BC1+J1Sxuik47sePVnSrzzUbNMTQ55n+XmHBSIzetUykWMMRWOfIKA/RXvOCt5D2EOdgiNc77iCKBRVfnyEUn97HgHP6a6LzA77oDkhEgVug4H3ME55MypjiU4H7mMzrJTOJyPJ7G3aKMCOIXD4Bb+5ngyr3otiu8s/3LCkf8Sqk37WcYXq8Np2rPkPg7TUiYZgtxft865p3cTdZZhO+N21N+oXgmYbv61Db8xUVHsVjnkv1v3dbtaw/MR+l1e6/OJbf7UeG3ul0W1l/bCilVqNj6aYFV/jV0XXD0HW90arNescp1VqN0ad9AH8R/bup+xiG1Zhpv652G746gvMJKvDF7lghEal3GrOqsbXU0Y3JRzXPoQpPHT2IYRidGRzIWteaDJ+vcBe4/LafhRX6bu3OlsbVhmVEP6XunMIUbu2ZU39LzNrNWtWEGk2fq/AZLPSHfcofz9I41hoGTZ9r0z1Y6A8fUP+ciLS62YeHO//o+lyFJuzU/ZQ+hv44dlYzFtjtsPS59GEHUmeUaRjQmGl2rHYYBvUBZv7zOIWZWrXUjdVHWg1IIdukYzrZCFztJH0wZx9JoaFnsCgvdfX4AXQxn4MUPkpU6JZqpO3U2lLyx4IqZIZFSGMn3YazGtdClSgkDSc9fRCHevSxXOqTmlPdRQzsE5m7uAqNpXScCnOopxDTpZ7ENHpqYgjyK5zaO8WhPP1BPZRTIdilHh21EleZy2yqwjOQwoRVWwTDUuhUcA8d4XwGKTznUuhKbKgSWEtcpkXow44xvnJNRF1dT22Be+iYB7DdE3sHzJSowqkl1k4+Bge2A2acYsSD3lPBKR/APIe9Jh3qfBPRA9up8JQP4HyFvUOknCZCJBqI5xs8KR+gDzxNjDuoiQWtp3KlfAAL+pJ0c1fApgSkvT9fyk8wz6Evum3ORLwDp6dypnxAIWxFQ/gkMhF9ifKbRkGHuvQvwAovuRNxwpJcbPCnfEAhx4v8jqBNdVmnivVQH+BRos8XwW7qSdSFnSqS8gGFPDcwh6Ld1EfweGN1SUrgPteVoc+ivcZD7O1GS8KhLia8zxC2+DaJUxL5e2qpYclU1M09ztvs+1KDqHM7lXsrGIXjIoZP3ZIaRF6ntgSXMXfAbync8UUiE32JHE5tiC5j7gQ6/P/UoXkm61Pwy42aRMqPAB7QhLmUSwxPI8ip7LfWYMw9oa/NfZaI/bHEZKeWpB3q8kjsH4/U92R9SjQmOFVoLx+Fa70WpE27WMMtMdapLYQB1J1Pwt9AvnAwJLKdKpvyPuauxFfmLvoYEg3G8QZCD9VJUEh9J/BKNvg96E6VTnkP8HU9BvYfGEalOhWjh5IR/CIlkIwiisSpdSpKDyUC+XYUdIkoRtWNpeDeH8ehurOHIPCe/QWj3RCn3k1GlJR3cXaRvh/ffo4Q/fok/XF6qOtQ8PloIs1P8gs4gt9TkRxqOp8R/3FT/fQRklNbGv16LzeOwH4plkuMRaqL8dJAWcf0z9B/WGNrX3ZL7GIZrxcO1uQlms6Vgt9GqZ9K91RrbblQWFiWluhY0jFPZ3NPquFY1nrBZ13KqaZzpuw3Ndr7Egsc16EjgYWFAwmJ5q7IiQUU+/MDUYnWy4OFwkTiS1GJDvC2ujCCPdXSXy0Xgiy81kU0muaZ8t9cbO4LTEZLX18oFCISBRqO2T9N4Ucl61fc6W+tHRSmEHAqesqzGPI51bLWogM40viKq+GY/f00fozQgyv9rbV1qj5ep7opn+KvSHOkv2Ut00fQA57+zvP0fmDZYxua/i/Z8jxg6W/CvwGLRhtyhdGyXicILBQg6a825VnYV4npbxkHMQ4dT8blxJ7q9FP+rfoxSelvvSokC/ScGpv+pil+pi1LbPq7yxiYvoSeavYvMhMYm/6uQ4H6COz0d/oppTyL4TnVqcyUZw4jPf3N/rPUUp4FNf0tY51LH5H4miLRhH7/XCmU9HdTnldggZb+zvOMHTpmKv2TUp41jOtWUGMWKc8ilP6QlGcRdKqpn6a4Dk0ikP6glGeO4iT9nb7q3+Hl5HLUU8Epz+KVl/5ZpjyLJumpHCnPHEaywDEfZJnyLOquU2l7eW4O1hx9RnpolOH5QHYECQuDPzNPeRaH364RFC5/z1pHDPZ3kagPMfih+DxUlptfAzmBP2ewxYRpf5ORuPzHDKU8C/tWXOK17M/ipMTFL0GBs+/QMYc/RYbx+q+5Eeg69U/unjpYvsn6U/PB21MH3+ZkCk44/DePxOvvc9BDo9RvwU4d/P1X1p9WjJsfsGEc/FT36+yKGYJ66uB2Dh16ByD9lzGuF2bIRZJTf85dD40Sn/7XtzO7FYRj37IFzmsPjXLzN30YB/Pv0DH09P9HOHRM/XbqBGduU57FfyI9dfDfjF7rqmMYWooPbudopwRmcrwxmPeUZ/H91zWZjYPrf04PjXJ487+Dgx+3N/+gHjqNbc/zMjsnJycnJycnJycnJycnJycnR5z/A/FnP6YLWK6yAAAAAElFTkSuQmCC;" parent="CSt-U8afeh_4yDy_RmMx-161" vertex="1">
          <mxGeometry x="65" y="50" width="40" height="40" as="geometry" />
        </mxCell>
        <mxCell id="CSt-U8afeh_4yDy_RmMx-166" value="" style="rounded=1;arcSize=10;dashed=1;strokeColor=#F59D56;fillColor=none;gradientColor=none;dashPattern=8 4;strokeWidth=2;verticalAlign=top;" parent="1" vertex="1">
          <mxGeometry x="-415" y="217" width="122" height="310" as="geometry" />
        </mxCell>
        <mxCell id="CSt-U8afeh_4yDy_RmMx-167" style="edgeStyle=orthogonalEdgeStyle;rounded=0;orthogonalLoop=1;jettySize=auto;html=1;exitX=0.5;exitY=1;exitDx=0;exitDy=0;exitPerimeter=0;" parent="1" source="CSt-U8afeh_4yDy_RmMx-168" target="CSt-U8afeh_4yDy_RmMx-170" edge="1">
          <mxGeometry relative="1" as="geometry" />
        </mxCell>
        <mxCell id="CSt-U8afeh_4yDy_RmMx-168" value="CodeBuild" style="sketch=0;points=[[0,0,0],[0.25,0,0],[0.5,0,0],[0.75,0,0],[1,0,0],[0,1,0],[0.25,1,0],[0.5,1,0],[0.75,1,0],[1,1,0],[0,0.25,0],[0,0.5,0],[0,0.75,0],[1,0.25,0],[1,0.5,0],[1,0.75,0]];outlineConnect=0;fontColor=#232F3E;fillColor=#C925D1;strokeColor=#ffffff;dashed=0;verticalLabelPosition=bottom;verticalAlign=top;align=center;html=1;fontSize=12;fontStyle=0;shape=mxgraph.aws4.resourceIcon;resIcon=mxgraph.aws4.codebuild;" parent="1" vertex="1">
          <mxGeometry x="-374" y="277" width="40" height="40" as="geometry" />
        </mxCell>
        <mxCell id="CSt-U8afeh_4yDy_RmMx-169" value="CodeDeploy" style="sketch=0;points=[[0,0,0],[0.25,0,0],[0.5,0,0],[0.75,0,0],[1,0,0],[0,1,0],[0.25,1,0],[0.5,1,0],[0.75,1,0],[1,1,0],[0,0.25,0],[0,0.5,0],[0,0.75,0],[1,0.25,0],[1,0.5,0],[1,0.75,0]];outlineConnect=0;fontColor=#232F3E;fillColor=#C925D1;strokeColor=#ffffff;dashed=0;verticalLabelPosition=bottom;verticalAlign=top;align=center;html=1;fontSize=12;fontStyle=0;shape=mxgraph.aws4.resourceIcon;resIcon=mxgraph.aws4.codedeploy;" parent="1" vertex="1">
          <mxGeometry x="-373" y="457" width="40" height="40" as="geometry" />
        </mxCell>
        <mxCell id="CSt-U8afeh_4yDy_RmMx-170" value="ECR" style="sketch=0;points=[[0,0,0],[0.25,0,0],[0.5,0,0],[0.75,0,0],[1,0,0],[0,1,0],[0.25,1,0],[0.5,1,0],[0.75,1,0],[1,1,0],[0,0.25,0],[0,0.5,0],[0,0.75,0],[1,0.25,0],[1,0.5,0],[1,0.75,0]];outlineConnect=0;fontColor=#232F3E;fillColor=#ED7100;strokeColor=#ffffff;dashed=0;verticalLabelPosition=bottom;verticalAlign=top;align=center;html=1;fontSize=12;fontStyle=0;shape=mxgraph.aws4.resourceIcon;resIcon=mxgraph.aws4.ecr;" parent="1" vertex="1">
          <mxGeometry x="-374" y="367" width="40" height="40" as="geometry" />
        </mxCell>
        <mxCell id="CSt-U8afeh_4yDy_RmMx-171" value="CodePipeline" style="sketch=0;points=[[0,0,0],[0.25,0,0],[0.5,0,0],[0.75,0,0],[1,0,0],[0,1,0],[0.25,1,0],[0.5,1,0],[0.75,1,0],[1,1,0],[0,0.25,0],[0,0.5,0],[0,0.75,0],[1,0.25,0],[1,0.5,0],[1,0.75,0]];outlineConnect=0;fontColor=#232F3E;fillColor=#C925D1;strokeColor=#ffffff;dashed=0;verticalLabelPosition=bottom;verticalAlign=top;align=center;html=1;fontSize=12;fontStyle=0;shape=mxgraph.aws4.resourceIcon;resIcon=mxgraph.aws4.codepipeline;" parent="1" vertex="1">
          <mxGeometry x="-374" y="187" width="40" height="40" as="geometry" />
        </mxCell>
        <mxCell id="CSt-U8afeh_4yDy_RmMx-172" value="" style="endArrow=classic;html=1;rounded=0;entryX=0.5;entryY=0;entryDx=0;entryDy=0;entryPerimeter=0;" parent="1" target="CSt-U8afeh_4yDy_RmMx-169" edge="1">
          <mxGeometry width="50" height="50" relative="1" as="geometry">
            <mxPoint x="-353" y="407" as="sourcePoint" />
            <mxPoint x="-303" y="357" as="targetPoint" />
          </mxGeometry>
        </mxCell>
        <mxCell id="CSt-U8afeh_4yDy_RmMx-174" style="edgeStyle=orthogonalEdgeStyle;rounded=0;orthogonalLoop=1;jettySize=auto;html=1;exitX=0;exitY=0.5;exitDx=0;exitDy=0;entryX=1;entryY=0.5;entryDx=0;entryDy=0;entryPerimeter=0;" parent="1" source="CSt-U8afeh_4yDy_RmMx-173" target="CSt-U8afeh_4yDy_RmMx-168" edge="1">
          <mxGeometry relative="1" as="geometry">
            <Array as="points">
              <mxPoint x="-275" y="397" />
              <mxPoint x="-275" y="297" />
            </Array>
          </mxGeometry>
        </mxCell>
        <mxCell id="ozGBokwXUY8snyWnppW8-1" value="" style="sketch=0;points=[[0,0,0],[0.25,0,0],[0.5,0,0],[0.75,0,0],[1,0,0],[0,1,0],[0.25,1,0],[0.5,1,0],[0.75,1,0],[1,1,0],[0,0.25,0],[0,0.5,0],[0,0.75,0],[1,0.25,0],[1,0.5,0],[1,0.75,0]];outlineConnect=0;fontColor=#232F3E;fillColor=#ED7100;strokeColor=#ffffff;dashed=0;verticalLabelPosition=bottom;verticalAlign=top;align=center;html=1;fontSize=12;fontStyle=0;aspect=fixed;shape=mxgraph.aws4.resourceIcon;resIcon=mxgraph.aws4.fargate;" parent="1" vertex="1">
          <mxGeometry x="1060" y="399" width="78" height="78" as="geometry" />
        </mxCell>
        <mxCell id="ozGBokwXUY8snyWnppW8-2" value="" style="sketch=0;points=[[0,0,0],[0.25,0,0],[0.5,0,0],[0.75,0,0],[1,0,0],[0,1,0],[0.25,1,0],[0.5,1,0],[0.75,1,0],[1,1,0],[0,0.25,0],[0,0.5,0],[0,0.75,0],[1,0.25,0],[1,0.5,0],[1,0.75,0]];outlineConnect=0;fontColor=#232F3E;fillColor=#ED7100;strokeColor=#ffffff;dashed=0;verticalLabelPosition=bottom;verticalAlign=top;align=center;html=1;fontSize=12;fontStyle=0;aspect=fixed;shape=mxgraph.aws4.resourceIcon;resIcon=mxgraph.aws4.eks;" parent="1" vertex="1">
          <mxGeometry x="870" y="643" width="78" height="78" as="geometry" />
        </mxCell>
        <mxCell id="ozGBokwXUY8snyWnppW8-3" value="" style="sketch=0;points=[[0,0,0],[0.25,0,0],[0.5,0,0],[0.75,0,0],[1,0,0],[0,1,0],[0.25,1,0],[0.5,1,0],[0.75,1,0],[1,1,0],[0,0.25,0],[0,0.5,0],[0,0.75,0],[1,0.25,0],[1,0.5,0],[1,0.75,0]];outlineConnect=0;fontColor=#232F3E;fillColor=#ED7100;strokeColor=#ffffff;dashed=0;verticalLabelPosition=bottom;verticalAlign=top;align=center;html=1;fontSize=12;fontStyle=0;aspect=fixed;shape=mxgraph.aws4.resourceIcon;resIcon=mxgraph.aws4.ec2;" parent="1" vertex="1">
          <mxGeometry x="996" y="647" width="78" height="78" as="geometry" />
        </mxCell>
        <mxCell id="ozGBokwXUY8snyWnppW8-4" value="" style="sketch=0;points=[[0,0,0],[0.25,0,0],[0.5,0,0],[0.75,0,0],[1,0,0],[0,1,0],[0.25,1,0],[0.5,1,0],[0.75,1,0],[1,1,0],[0,0.25,0],[0,0.5,0],[0,0.75,0],[1,0.25,0],[1,0.5,0],[1,0.75,0]];outlineConnect=0;fontColor=#232F3E;fillColor=#E7157B;strokeColor=#ffffff;dashed=0;verticalLabelPosition=bottom;verticalAlign=top;align=center;html=1;fontSize=12;fontStyle=0;aspect=fixed;shape=mxgraph.aws4.resourceIcon;resIcon=mxgraph.aws4.sqs;" parent="1" vertex="1">
          <mxGeometry x="996" y="532" width="78" height="78" as="geometry" />
        </mxCell>
        <mxCell id="ozGBokwXUY8snyWnppW8-5" value="" style="sketch=0;outlineConnect=0;fontColor=#232F3E;gradientColor=none;fillColor=#C925D1;strokeColor=none;dashed=0;verticalLabelPosition=bottom;verticalAlign=top;align=center;html=1;fontSize=12;fontStyle=0;aspect=fixed;pointerEvents=1;shape=mxgraph.aws4.elasticache_for_redis;" parent="1" vertex="1">
          <mxGeometry x="1138" y="536.5" width="78" height="69" as="geometry" />
        </mxCell>
        <mxCell id="ozGBokwXUY8snyWnppW8-6" value="" style="sketch=0;points=[[0,0,0],[0.25,0,0],[0.5,0,0],[0.75,0,0],[1,0,0],[0,1,0],[0.25,1,0],[0.5,1,0],[0.75,1,0],[1,1,0],[0,0.25,0],[0,0.5,0],[0,0.75,0],[1,0.25,0],[1,0.5,0],[1,0.75,0]];outlineConnect=0;fontColor=#232F3E;fillColor=#8C4FFF;strokeColor=#ffffff;dashed=0;verticalLabelPosition=bottom;verticalAlign=top;align=center;html=1;fontSize=12;fontStyle=0;aspect=fixed;shape=mxgraph.aws4.resourceIcon;resIcon=mxgraph.aws4.api_gateway;" parent="1" vertex="1">
          <mxGeometry x="948" y="317" width="78" height="78" as="geometry" />
        </mxCell>
        <mxCell id="ozGBokwXUY8snyWnppW8-8" value="" style="sketch=0;points=[[0,0,0],[0.25,0,0],[0.5,0,0],[0.75,0,0],[1,0,0],[0,1,0],[0.25,1,0],[0.5,1,0],[0.75,1,0],[1,1,0],[0,0.25,0],[0,0.5,0],[0,0.75,0],[1,0.25,0],[1,0.5,0],[1,0.75,0]];outlineConnect=0;fontColor=#232F3E;fillColor=#C925D1;strokeColor=#ffffff;dashed=0;verticalLabelPosition=bottom;verticalAlign=top;align=center;html=1;fontSize=12;fontStyle=0;aspect=fixed;shape=mxgraph.aws4.resourceIcon;resIcon=mxgraph.aws4.codepipeline;" parent="1" vertex="1">
          <mxGeometry x="825" y="783" width="78" height="78" as="geometry" />
        </mxCell>
        <mxCell id="ozGBokwXUY8snyWnppW8-9" value="" style="sketch=0;points=[[0,0,0],[0.25,0,0],[0.5,0,0],[0.75,0,0],[1,0,0],[0,1,0],[0.25,1,0],[0.5,1,0],[0.75,1,0],[1,1,0],[0,0.25,0],[0,0.5,0],[0,0.75,0],[1,0.25,0],[1,0.5,0],[1,0.75,0]];outlineConnect=0;fontColor=#232F3E;fillColor=#C925D1;strokeColor=#ffffff;dashed=0;verticalLabelPosition=bottom;verticalAlign=top;align=center;html=1;fontSize=12;fontStyle=0;aspect=fixed;shape=mxgraph.aws4.resourceIcon;resIcon=mxgraph.aws4.codebuild;" parent="1" vertex="1">
          <mxGeometry x="831" y="936" width="78" height="78" as="geometry" />
        </mxCell>
        <mxCell id="ozGBokwXUY8snyWnppW8-10" value="" style="sketch=0;points=[[0,0,0],[0.25,0,0],[0.5,0,0],[0.75,0,0],[1,0,0],[0,1,0],[0.25,1,0],[0.5,1,0],[0.75,1,0],[1,1,0],[0,0.25,0],[0,0.5,0],[0,0.75,0],[1,0.25,0],[1,0.5,0],[1,0.75,0]];outlineConnect=0;fontColor=#232F3E;fillColor=#C925D1;strokeColor=#ffffff;dashed=0;verticalLabelPosition=bottom;verticalAlign=top;align=center;html=1;fontSize=12;fontStyle=0;aspect=fixed;shape=mxgraph.aws4.resourceIcon;resIcon=mxgraph.aws4.codedeploy;" parent="1" vertex="1">
          <mxGeometry x="993" y="816" width="78" height="78" as="geometry" />
        </mxCell>
        <mxCell id="ozGBokwXUY8snyWnppW8-11" value="" style="sketch=0;points=[[0,0,0],[0.25,0,0],[0.5,0,0],[0.75,0,0],[1,0,0],[0,1,0],[0.25,1,0],[0.5,1,0],[0.75,1,0],[1,1,0],[0,0.25,0],[0,0.5,0],[0,0.75,0],[1,0.25,0],[1,0.5,0],[1,0.75,0]];outlineConnect=0;fontColor=#232F3E;fillColor=#C925D1;strokeColor=#ffffff;dashed=0;verticalLabelPosition=bottom;verticalAlign=top;align=center;html=1;fontSize=12;fontStyle=0;aspect=fixed;shape=mxgraph.aws4.resourceIcon;resIcon=mxgraph.aws4.codecommit;" parent="1" vertex="1">
          <mxGeometry x="1204" y="725" width="78" height="78" as="geometry" />
        </mxCell>
        <mxCell id="ozGBokwXUY8snyWnppW8-12" value="" style="sketch=0;points=[[0,0,0],[0.25,0,0],[0.5,0,0],[0.75,0,0],[1,0,0],[0,1,0],[0.25,1,0],[0.5,1,0],[0.75,1,0],[1,1,0],[0,0.25,0],[0,0.5,0],[0,0.75,0],[1,0.25,0],[1,0.5,0],[1,0.75,0]];outlineConnect=0;fontColor=#232F3E;fillColor=#ED7100;strokeColor=#ffffff;dashed=0;verticalLabelPosition=bottom;verticalAlign=top;align=center;html=1;fontSize=12;fontStyle=0;aspect=fixed;shape=mxgraph.aws4.resourceIcon;resIcon=mxgraph.aws4.ecr;" parent="1" vertex="1">
          <mxGeometry x="1106" y="914" width="78" height="78" as="geometry" />
        </mxCell>
        <mxCell id="G9HzeaoLleI3h6fdN2Oe-1" value="Slack" style="shape=image;html=1;verticalAlign=top;verticalLabelPosition=bottom;labelBackgroundColor=#ffffff;imageAspect=0;aspect=fixed;image=https://cdn2.iconfinder.com/data/icons/social-media-2285/512/1_Slack_colored_svg-128.png" vertex="1" parent="1">
          <mxGeometry x="680" y="80" width="40" height="40" as="geometry" />
        </mxCell>
        <mxCell id="G9HzeaoLleI3h6fdN2Oe-3" value="" style="endArrow=none;html=1;rounded=0;exitX=0.5;exitY=0;exitDx=0;exitDy=0;exitPerimeter=0;" edge="1" parent="1" source="CSt-U8afeh_4yDy_RmMx-55">
          <mxGeometry width="50" height="50" relative="1" as="geometry">
            <mxPoint x="120" y="119" as="sourcePoint" />
            <mxPoint x="170" y="69" as="targetPoint" />
          </mxGeometry>
        </mxCell>
        <mxCell id="G9HzeaoLleI3h6fdN2Oe-4" style="edgeStyle=orthogonalEdgeStyle;rounded=0;orthogonalLoop=1;jettySize=auto;html=1;exitX=1;exitY=0.5;exitDx=0;exitDy=0;exitPerimeter=0;entryX=0;entryY=0.5;entryDx=0;entryDy=0;entryPerimeter=0;" edge="1" parent="1" source="CSt-U8afeh_4yDy_RmMx-81" target="CSt-U8afeh_4yDy_RmMx-55">
          <mxGeometry relative="1" as="geometry" />
        </mxCell>
        <mxCell id="G9HzeaoLleI3h6fdN2Oe-5" style="edgeStyle=orthogonalEdgeStyle;rounded=0;orthogonalLoop=1;jettySize=auto;html=1;exitX=1;exitY=0.5;exitDx=0;exitDy=0;exitPerimeter=0;entryX=0;entryY=0.5;entryDx=0;entryDy=0;entryPerimeter=0;" edge="1" parent="1" source="CSt-U8afeh_4yDy_RmMx-55" target="CSt-U8afeh_4yDy_RmMx-77">
          <mxGeometry relative="1" as="geometry" />
        </mxCell>
        <mxCell id="G9HzeaoLleI3h6fdN2Oe-6" style="edgeStyle=orthogonalEdgeStyle;rounded=0;orthogonalLoop=1;jettySize=auto;html=1;exitX=1;exitY=0.5;exitDx=0;exitDy=0;exitPerimeter=0;entryX=0;entryY=0.5;entryDx=0;entryDy=0;entryPerimeter=0;" edge="1" parent="1" source="CSt-U8afeh_4yDy_RmMx-77" target="CSt-U8afeh_4yDy_RmMx-57">
          <mxGeometry relative="1" as="geometry" />
        </mxCell>
        <mxCell id="G9HzeaoLleI3h6fdN2Oe-7" style="edgeStyle=orthogonalEdgeStyle;rounded=0;orthogonalLoop=1;jettySize=auto;html=1;exitX=1;exitY=0.5;exitDx=0;exitDy=0;exitPerimeter=0;entryX=0.5;entryY=0;entryDx=0;entryDy=0;entryPerimeter=0;" edge="1" parent="1" source="CSt-U8afeh_4yDy_RmMx-57" target="CSt-U8afeh_4yDy_RmMx-59">
          <mxGeometry relative="1" as="geometry" />
        </mxCell>
        <mxCell id="G9HzeaoLleI3h6fdN2Oe-9" value="172.31.0.0/20" style="text;html=1;align=center;verticalAlign=middle;whiteSpace=wrap;rounded=0;" vertex="1" parent="1">
          <mxGeometry x="-110" y="260" width="60" height="30" as="geometry" />
        </mxCell>
        <mxCell id="G9HzeaoLleI3h6fdN2Oe-10" value="" style="sketch=0;outlineConnect=0;fontColor=#232F3E;gradientColor=none;fillColor=#232F3D;strokeColor=none;dashed=0;verticalLabelPosition=bottom;verticalAlign=top;align=center;html=1;fontSize=12;fontStyle=0;aspect=fixed;pointerEvents=1;shape=mxgraph.aws4.user;" vertex="1" parent="1">
          <mxGeometry x="796" y="61" width="78" height="78" as="geometry" />
        </mxCell>
        <mxCell id="G9HzeaoLleI3h6fdN2Oe-11" value="" style="sketch=0;pointerEvents=1;shadow=0;dashed=0;html=1;strokeColor=none;fillColor=#DF8C42;labelPosition=center;verticalLabelPosition=bottom;verticalAlign=top;align=center;outlineConnect=0;shape=mxgraph.veeam2.open_vpn;" vertex="1" parent="1">
          <mxGeometry x="849" y="219" width="34" height="34" as="geometry" />
        </mxCell>
        <mxCell id="G9HzeaoLleI3h6fdN2Oe-12" value="" style="sketch=0;points=[[0,0,0],[0.25,0,0],[0.5,0,0],[0.75,0,0],[1,0,0],[0,1,0],[0.25,1,0],[0.5,1,0],[0.75,1,0],[1,1,0],[0,0.25,0],[0,0.5,0],[0,0.75,0],[1,0.25,0],[1,0.5,0],[1,0.75,0]];outlineConnect=0;fontColor=#232F3E;fillColor=#8C4FFF;strokeColor=#ffffff;dashed=0;verticalLabelPosition=bottom;verticalAlign=top;align=center;html=1;fontSize=12;fontStyle=0;aspect=fixed;shape=mxgraph.aws4.resourceIcon;resIcon=mxgraph.aws4.client_vpn;" vertex="1" parent="1">
          <mxGeometry x="801" y="284" width="78" height="78" as="geometry" />
        </mxCell>
        <mxCell id="G9HzeaoLleI3h6fdN2Oe-13" value="" style="outlineConnect=0;dashed=0;verticalLabelPosition=bottom;verticalAlign=top;align=center;html=1;shape=mxgraph.aws3.vpc_peering;fillColor=#F58534;gradientColor=none;" vertex="1" parent="1">
          <mxGeometry x="924" y="153" width="69" height="72" as="geometry" />
        </mxCell>
        <mxCell id="G9HzeaoLleI3h6fdN2Oe-14" value="VPC" style="sketch=0;outlineConnect=0;gradientColor=none;html=1;whiteSpace=wrap;fontSize=12;fontStyle=0;shape=mxgraph.aws4.group;grIcon=mxgraph.aws4.group_vpc;strokeColor=#879196;fillColor=none;verticalAlign=top;align=left;spacingLeft=30;fontColor=#879196;dashed=0;" vertex="1" parent="1">
          <mxGeometry x="1026" y="35" width="198" height="182" as="geometry" />
        </mxCell>
        <mxCell id="G9HzeaoLleI3h6fdN2Oe-17" value="" style="shape=image;html=1;verticalAlign=top;verticalLabelPosition=bottom;labelBackgroundColor=#ffffff;imageAspect=0;aspect=fixed;image=https://cdn2.iconfinder.com/data/icons/social-media-2285/512/1_Slack_colored_svg-128.png" vertex="1" parent="1">
          <mxGeometry x="849" y="430" width="128" height="128" as="geometry" />
        </mxCell>
        <mxCell id="G9HzeaoLleI3h6fdN2Oe-18" value="" style="sketch=0;points=[[0,0,0],[0.25,0,0],[0.5,0,0],[0.75,0,0],[1,0,0],[0,1,0],[0.25,1,0],[0.5,1,0],[0.75,1,0],[1,1,0],[0,0.25,0],[0,0.5,0],[0,0.75,0],[1,0.25,0],[1,0.5,0],[1,0.75,0]];outlineConnect=0;fontColor=#232F3E;fillColor=#E7157B;strokeColor=#ffffff;dashed=0;verticalLabelPosition=bottom;verticalAlign=top;align=center;html=1;fontSize=12;fontStyle=0;aspect=fixed;shape=mxgraph.aws4.resourceIcon;resIcon=mxgraph.aws4.eventbridge;" vertex="1" parent="1">
          <mxGeometry x="1102" y="277" width="78" height="78" as="geometry" />
        </mxCell>
        <mxCell id="G9HzeaoLleI3h6fdN2Oe-19" value="" style="sketch=0;points=[[0,0,0],[0.25,0,0],[0.5,0,0],[0.75,0,0],[1,0,0],[0,1,0],[0.25,1,0],[0.5,1,0],[0.75,1,0],[1,1,0],[0,0.25,0],[0,0.5,0],[0,0.75,0],[1,0.25,0],[1,0.5,0],[1,0.75,0]];outlineConnect=0;fontColor=#232F3E;fillColor=#ED7100;strokeColor=#ffffff;dashed=0;verticalLabelPosition=bottom;verticalAlign=top;align=center;html=1;fontSize=12;fontStyle=0;aspect=fixed;shape=mxgraph.aws4.resourceIcon;resIcon=mxgraph.aws4.lambda;" vertex="1" parent="1">
          <mxGeometry x="1196" y="380" width="78" height="78" as="geometry" />
        </mxCell>
        <mxCell id="G9HzeaoLleI3h6fdN2Oe-20" value="" style="sketch=0;points=[[0,0,0],[0.25,0,0],[0.5,0,0],[0.75,0,0],[1,0,0],[0,1,0],[0.25,1,0],[0.5,1,0],[0.75,1,0],[1,1,0],[0,0.25,0],[0,0.5,0],[0,0.75,0],[1,0.25,0],[1,0.5,0],[1,0.75,0]];outlineConnect=0;fontColor=#232F3E;fillColor=#ED7100;strokeColor=#ffffff;dashed=0;verticalLabelPosition=bottom;verticalAlign=top;align=center;html=1;fontSize=12;fontStyle=0;aspect=fixed;shape=mxgraph.aws4.resourceIcon;resIcon=mxgraph.aws4.ec2;" vertex="1" parent="1">
          <mxGeometry x="1220" y="253" width="78" height="78" as="geometry" />
        </mxCell>
        <mxCell id="G9HzeaoLleI3h6fdN2Oe-22" value="" style="sketch=0;points=[[0,0,0],[0.25,0,0],[0.5,0,0],[0.75,0,0],[1,0,0],[0,1,0],[0.25,1,0],[0.5,1,0],[0.75,1,0],[1,1,0],[0,0.25,0],[0,0.5,0],[0,0.75,0],[1,0.25,0],[1,0.5,0],[1,0.75,0]];outlineConnect=0;fontColor=#232F3E;fillColor=#7AA116;strokeColor=#ffffff;dashed=0;verticalLabelPosition=bottom;verticalAlign=top;align=center;html=1;fontSize=12;fontStyle=0;aspect=fixed;shape=mxgraph.aws4.resourceIcon;resIcon=mxgraph.aws4.s3;" vertex="1" parent="1">
          <mxGeometry x="472" y="659" width="78" height="78" as="geometry" />
        </mxCell>
        <mxCell id="G9HzeaoLleI3h6fdN2Oe-23" value="" style="sketch=0;points=[[0,0,0],[0.25,0,0],[0.5,0,0],[0.75,0,0],[1,0,0],[0,1,0],[0.25,1,0],[0.5,1,0],[0.75,1,0],[1,1,0],[0,0.25,0],[0,0.5,0],[0,0.75,0],[1,0.25,0],[1,0.5,0],[1,0.75,0]];outlineConnect=0;fontColor=#232F3E;fillColor=#7AA116;strokeColor=#ffffff;dashed=0;verticalLabelPosition=bottom;verticalAlign=top;align=center;html=1;fontSize=12;fontStyle=0;aspect=fixed;shape=mxgraph.aws4.resourceIcon;resIcon=mxgraph.aws4.glacier;" vertex="1" parent="1">
          <mxGeometry x="626" y="671" width="78" height="78" as="geometry" />
        </mxCell>
      </root>
    </mxGraphModel>
  </diagram>
</mxfile>
